<svg version="1.1" id="Layer_1" xmlns="http://www.w3.org/2000/svg" xmlns:xlink="http://www.w3.org/1999/xlink" x="0px" y="0px"
	 width="100%" viewBox="0 0 512 512" enable-background="new 0 0 512 512" xml:space="preserve">
<path fill="#FE815F" opacity="1.000000" stroke="none" 
	d="
M1.000007,456.000000 
	C1.000000,323.643341 1.000000,191.286682 1.294021,58.805481 
	C2.047561,58.039967 2.734747,57.462498 2.933767,56.748882 
	C10.691503,28.932367 28.522480,11.121408 56.143860,2.938561 
	C56.888641,2.717918 57.386822,1.664874 58.000000,1.000000 
	C190.356659,1.000000 322.713318,1.000000 455.194611,1.294087 
	C455.960327,2.047526 456.537964,2.734308 457.251648,2.933392 
	C485.067169,10.692562 502.879303,28.522446 511.061127,56.144615 
	C511.281677,56.889179 512.335022,57.387081 513.000000,58.000004 
	C513.000000,190.356659 513.000000,322.713318 512.705933,455.194611 
	C511.952515,455.960297 511.265656,456.537903 511.066589,457.251587 
	C503.307648,485.067108 485.477112,502.878479 457.855988,511.061371 
	C457.111267,511.282043 456.613159,512.335144 456.000000,513.000000 
	C323.643341,513.000000 191.286682,513.000000 58.805382,512.705933 
	C58.039673,511.952454 57.462070,511.265533 56.748383,511.066467 
	C28.932570,503.307800 11.121221,485.477295 2.938787,457.855774 
	C2.718175,457.111084 1.664964,456.613037 1.000007,456.000000 
M138.863968,403.846466 
	C145.915451,403.798950 152.966949,403.751404 160.948654,403.796722 
	C204.753326,403.814453 248.558014,403.853149 292.362640,403.819275 
	C297.013977,403.815704 301.683167,403.574982 306.313385,403.127106 
	C369.896118,396.976990 406.032440,326.797150 374.011353,271.564331 
	C370.951660,266.286713 367.172302,261.426392 363.776947,256.445587 
	C363.877930,256.152222 363.896027,255.967224 363.991882,255.841446 
	C365.100830,254.386246 366.220673,252.939316 367.339294,251.491486 
	C378.892365,236.538589 385.354431,219.608383 385.848541,200.743759 
	C387.141998,151.364334 349.019653,110.397926 299.412109,109.386894 
	C252.964233,108.440262 206.480453,109.253677 159.093582,109.124344 
	C152.042358,109.214958 144.991119,109.305573 137.111145,109.321434 
	C133.857880,109.658745 130.604614,109.996056 127.216454,110.347359 
	C127.216454,129.621628 127.216454,148.671158 127.216454,167.706268 
	C180.442734,169.347534 215.608688,211.227982 216.413513,253.762146 
	C216.802704,274.330627 211.235153,292.952820 198.710907,309.256439 
	C180.732574,332.660004 156.436844,343.973419 127.204147,345.157715 
	C127.204147,364.862640 127.204147,384.089417 127.204147,403.636688 
	C131.020782,403.636688 134.480545,403.636688 138.863968,403.846466 
z"/>
<path fill="#000000" opacity="1.000000" stroke="none" 
	d="
M57.531342,1.000000 
	C57.386822,1.664874 56.888641,2.717918 56.143860,2.938561 
	C28.522480,11.121408 10.691503,28.932367 2.933767,56.748882 
	C2.734747,57.462498 2.047561,58.039967 1.294021,58.340466 
	C1.000000,39.073208 1.000000,20.146416 1.000000,1.000000 
	C19.686987,1.000000 38.374836,1.000000 57.531342,1.000000 
z"/>
<path fill="#000000" opacity="1.000000" stroke="none" 
	d="
M513.000000,57.531345 
	C512.335022,57.387081 511.281677,56.889179 511.061127,56.144615 
	C502.879303,28.522446 485.067169,10.692562 457.251648,2.933392 
	C456.537964,2.734308 455.960327,2.047526 455.659607,1.294087 
	C474.926788,1.000000 493.853607,1.000000 513.000000,1.000000 
	C513.000000,19.686987 513.000000,38.374836 513.000000,57.531345 
z"/>
<path fill="#000000" opacity="1.000000" stroke="none" 
	d="
M1.000007,456.468628 
	C1.664964,456.613037 2.718175,457.111084 2.938787,457.855774 
	C11.121221,485.477295 28.932570,503.307800 56.748383,511.066467 
	C57.462070,511.265533 58.039673,511.952454 58.340370,512.705933 
	C39.073208,513.000000 20.146416,513.000000 1.000000,513.000000 
	C1.000000,494.313019 1.000000,475.625153 1.000007,456.468628 
z"/>
<path fill="#000000" opacity="1.000000" stroke="none" 
	d="
M456.468689,513.000000 
	C456.613159,512.335144 457.111267,511.282043 457.855988,511.061371 
	C485.477112,502.878479 503.307648,485.067108 511.066589,457.251587 
	C511.265656,456.537903 511.952515,455.960297 512.705933,455.659607 
	C513.000000,474.926788 513.000000,493.853607 513.000000,513.000000 
	C494.313019,513.000000 475.625153,513.000000 456.468689,513.000000 
z"/>
<path fill="#FFE6DF" opacity="1.000000" stroke="none" 
	d="
M160.012482,109.292526 
	C206.480453,109.253677 252.964233,108.440262 299.412109,109.386894 
	C349.019653,110.397926 387.141998,151.364334 385.848541,200.743759 
	C385.354431,219.608383 378.892365,236.538589 367.339294,251.491486 
	C366.220673,252.939316 365.100830,254.386246 363.991882,255.841446 
	C363.896027,255.967224 363.877930,256.152222 363.776947,256.445587 
	C367.172302,261.426392 370.951660,266.286713 374.011353,271.564331 
	C406.032440,326.797150 369.896118,396.976990 306.313385,403.127106 
	C301.683167,403.574982 297.013977,403.815704 292.362640,403.819275 
	C248.558014,403.853149 204.753326,403.814453 160.674683,403.447845 
	C163.590836,402.400848 166.761169,401.590942 169.974106,401.021606 
	C210.295029,393.876770 244.719849,375.989410 272.495697,345.049805 
	C280.439484,344.971344 287.920349,344.981049 295.400726,344.928406 
	C311.114624,344.817841 323.993256,334.051636 325.876648,319.489136 
	C327.848785,304.240662 318.649078,291.084808 302.992676,286.328308 
	C306.884888,266.120087 307.542999,246.329483 302.966492,226.418594 
	C318.861389,221.557983 327.918121,208.495682 325.884247,193.683823 
	C323.828918,178.715561 311.170868,168.216507 294.984985,168.068863 
	C287.332672,167.999054 279.680115,167.951935 271.841675,167.623932 
	C266.122772,161.829880 260.979248,155.837509 254.989868,150.863770 
	C228.339035,128.732269 197.561203,115.854897 163.348221,110.942017 
	C162.181412,110.774467 161.121964,109.859253 160.012482,109.292526 
z"/>
<path fill="#FFFFFF" opacity="1.000000" stroke="none" 
	d="
M137.940308,403.636658 
	C134.480545,403.636688 131.020782,403.636688 127.204147,403.636688 
	C127.204147,384.089417 127.204147,364.862640 127.204147,345.157715 
	C156.436844,343.973419 180.732574,332.660004 198.710907,309.256439 
	C211.235153,292.952820 216.802704,274.330627 216.413513,253.762146 
	C215.608688,211.227982 180.442734,169.347534 127.216454,167.706268 
	C127.216454,148.671158 127.216454,129.621628 127.216454,110.347359 
	C130.604614,109.996056 133.857880,109.658745 137.878128,109.529419 
	C141.266983,110.106232 143.883377,110.520699 146.511581,110.836952 
	C179.680634,114.828316 208.063477,128.738434 231.801880,152.149139 
	C236.989914,157.265549 241.832581,162.732162 246.921371,168.374207 
	C253.325348,180.008820 260.209778,191.036682 265.758728,202.699921 
	C269.429169,210.414780 271.183289,219.041336 273.806854,227.684204 
	C274.548004,234.830902 275.970306,241.564728 275.857666,248.272797 
	C275.647522,260.789948 274.545380,273.292114 273.567993,286.091553 
	C269.558563,297.342133 266.497833,308.613098 261.818207,319.166168 
	C257.815735,328.192200 251.956711,336.394928 246.632446,345.130432 
	C245.438446,346.269836 244.462524,347.185760 243.633316,348.219421 
	C225.887878,370.339569 203.650681,386.334198 176.735138,395.040741 
	C164.189407,399.099030 150.895218,400.843445 137.940308,403.636658 
z"/>
<path fill="#E4CBC4" opacity="1.000000" stroke="none" 
	d="
M246.834320,168.037476 
	C241.832581,162.732162 236.989914,157.265549 231.801880,152.149139 
	C208.063477,128.738434 179.680634,114.828316 146.511581,110.836952 
	C143.883377,110.520699 141.266983,110.106232 138.292511,109.566795 
	C144.991119,109.305573 152.042358,109.214958 159.553040,109.208435 
	C161.121964,109.859253 162.181412,110.774467 163.348221,110.942017 
	C197.561203,115.854897 228.339035,128.732269 254.989868,150.863770 
	C260.979248,155.837509 266.122772,161.829880 271.373901,167.678253 
	C263.006165,168.014633 254.920242,168.026047 246.834320,168.037476 
z"/>
<path fill="#E4CBC4" opacity="1.000000" stroke="none" 
	d="
M138.402130,403.741577 
	C150.895218,400.843445 164.189407,399.099030 176.735138,395.040741 
	C203.650681,386.334198 225.887878,370.339569 243.633316,348.219421 
	C244.462524,347.185760 245.438446,346.269836 247.107727,345.125702 
	C255.923782,345.004791 263.978149,345.057251 272.032532,345.109680 
	C244.719849,375.989410 210.295029,393.876770 169.974106,401.021606 
	C166.761169,401.590942 163.590836,402.400848 160.209564,403.401428 
	C152.966949,403.751404 145.915451,403.798950 138.402130,403.741577 
z"/>
<path fill="#FE8260" opacity="1.000000" stroke="none" 
	d="
M246.921371,168.374207 
	C254.920242,168.026047 263.006165,168.014633 271.559875,167.948868 
	C279.680115,167.951935 287.332672,167.999054 294.984985,168.068863 
	C311.170868,168.216507 323.828918,178.715561 325.884247,193.683823 
	C327.918121,208.495682 318.861389,221.557983 302.531677,226.465530 
	C292.443390,226.865662 283.119385,227.062683 273.795349,227.259705 
	C271.183289,219.041336 269.429169,210.414780 265.758728,202.699921 
	C260.209778,191.036682 253.325348,180.008820 246.921371,168.374207 
z"/>
<path fill="#FE8260" opacity="1.000000" stroke="none" 
	d="
M272.495697,345.049805 
	C263.978149,345.057251 255.923782,345.004791 247.394135,344.957092 
	C251.956711,336.394928 257.815735,328.192200 261.818207,319.166168 
	C266.497833,308.613098 269.558563,297.342133 274.049072,286.152588 
	C284.172760,286.190125 293.568970,286.457672 302.965210,286.725220 
	C318.649078,291.084808 327.848785,304.240662 325.876648,319.489136 
	C323.993256,334.051636 311.114624,344.817841 295.400726,344.928406 
	C287.920349,344.981049 280.439484,344.971344 272.495697,345.049805 
z"/>
<path fill="#E0CAC4" opacity="1.000000" stroke="none" 
	d="
M302.992676,286.328308 
	C293.568970,286.457672 284.172760,286.190125 274.295471,285.861542 
	C274.545380,273.292114 275.647522,260.789948 275.857666,248.272797 
	C275.970306,241.564728 274.548004,234.830902 273.806885,227.684204 
	C283.119385,227.062683 292.443390,226.865662 302.202209,226.621719 
	C307.542999,246.329483 306.884888,266.120087 302.992676,286.328308 
z"/>
</svg>