<svg fill="none" height="40" viewBox="0 0 40 40" width="40" xmlns="http://www.w3.org/2000/svg" xmlns:xlink="http://www.w3.org/1999/xlink"><linearGradient id="a" gradientUnits="userSpaceOnUse" x1="21.0083" x2="21.0083" y1="8" y2="27.1015"><stop offset="0" stop-color="#f0ffff"/><stop offset=".1096" stop-color="#ddfafe"/><stop offset=".331" stop-color="#adebfa"/><stop offset=".6441" stop-color="#60d4f5"/><stop offset=".9994" stop-color="#00b8ee"/></linearGradient><path d="m0 0h40v40h-40z" fill="#f8e026"/><path d="m16.6695 30.4378-2.6089-3.6902c-.1052-.1482-.0698-.3537.0784-.4579l1.7246-1.219c1.7849-1.2619 2.8499-3.0124 2.8499-5.5047v-11.23713c0-.18164.1472-.32887.3289-.32887h4.6042v11.564c0 4.5383-1.2639 6.8021-4.9847 9.4637z" fill="#fff"/><path d="m23.5107 8v11.3709c0 4.5383-1.2638 6.8021-4.9847 9.4637l-1.9933 1.4092.9493 1.3422c.1052.1482.3098.1836.458.0784l1.7342-1.2256c2.2065-1.5784 3.588-3.0296 4.4809-4.7056.9187-1.7246 1.3288-3.6873 1.3288-6.3632v-11.04113c0-.18164-.1472-.32887-.3288-.32887z" fill="url(#a)"/></svg>