<svg fill="none" height="40" viewBox="0 0 40 40" width="40" xmlns="http://www.w3.org/2000/svg"><path d="m0 0h40v40h-40z" fill="#000"/><g fill="#fafcff"><path d="m21.5374 19.8277c0 3.7707-3.0305 6.8275-6.7686 6.8275s-6.7688-3.0575-6.7688-6.8275 3.0305-6.8277 6.7688-6.8277c3.7384 0 6.7686 3.057 6.7686 6.8277z"/><path d="m28.9627 19.8281c0 3.5494-1.5153 6.4278-3.3844 6.4278-1.8692 0-3.3845-2.8784-3.3845-6.4278 0-3.5493 1.5151-6.4277 3.3842-6.4277 1.8692 0 3.3845 2.8775 3.3845 6.4277"/><path d="m32 19.8276c0 3.1793-.5328 5.7582-1.1903 5.7582s-1.1901-2.5782-1.1901-5.7582.5329-5.7583 1.1901-5.7583c.6573 0 1.1903 2.578 1.1903 5.7583z"/></g></svg>