<svg height="512px" style="enable-background:new 0 0 512 512;" version="1.1" viewBox="0 0 512 512" width="512px" xml:space="preserve" xmlns="http://www.w3.org/2000/svg" xmlns:xlink="http://www.w3.org/1999/xlink" fill="#e60012"><g id="comp_x5F_232-nintendo-switch"><g><path d="M124.432,27.526c-45.786,8.212-82.641,42.09-94.241,86.644c-4.208,16.118-4.517,25.562-4.003,150.398    c0.204,114.566,0.308,117.235,2.258,126.168c10.574,47.734,44.452,81.718,92.702,92.906c6.262,1.437,14.269,1.745,65.804,1.951    c53.28,0.411,58.824,0.307,60.261-1.131c1.436-1.437,1.54-19.813,1.54-228.109c0-154.503-0.307-227.185-0.923-228.521    c-0.924-1.744-2.566-1.847-58.413-1.744C144.041,26.192,130.388,26.5,124.432,27.526L124.432,27.526z M210.564,256.046v192.896    l-38.806-0.512c-35.725-0.411-39.523-0.614-46.709-2.359c-30.694-7.907-53.383-31.52-59.851-62.316    c-2.053-9.649-2.053-246.486-0.103-255.931c5.749-26.795,24.331-48.968,49.276-58.926c12.524-5.031,18.376-5.646,59.132-5.749    l36.854-0.103v193H210.564z M132.645,121.357c-5.954,1.129-15.09,5.75-20.018,9.958c-9.958,8.623-14.988,20.942-14.167,35.417    c0.411,7.495,0.821,9.548,3.901,15.604c4.517,9.239,11.189,16.015,20.43,20.532c6.365,3.183,8.007,3.491,16.322,3.799    c7.493,0.306,10.163,0,15.194-1.747c20.634-6.981,33.159-27,29.565-47.633C179.869,132.957,156.565,116.533,132.645,121.357z     M295.052,26.602c-0.409,0.308-0.613,103.48-0.613,229.444c0,207.682,0.101,228.727,1.538,229.342    c2.566,0.924,76.481,0.617,85.619-0.411c38.701-4.414,72.888-27.923,91.366-62.827c2.361-4.517,5.543-12.011,7.186-16.631    c5.955-17.864,5.852-13.141,5.852-149.986c0-109.229-0.203-125.552-1.54-132.429c-9.443-49.586-47.324-87.057-97.012-95.577    c-6.674-1.129-16.939-1.437-50.099-1.437C314.353,25.986,295.362,26.294,295.052,26.602z M396.789,234.077    c14.886,3.902,26.999,15.193,32.03,29.668c3.181,8.933,3.08,22.071-0.105,30.287c-5.849,15.089-17.245,25.663-31.925,29.564    c-23.817,6.161-49.175-8.211-56.054-31.823c-2.053-7.188-1.949-19.405,0.41-26.899    C348.231,241.571,372.972,227.815,396.789,234.077L396.789,234.077z"/></g></g><g id="Layer_1"/></svg>