<svg xmlns="http://www.w3.org/2000/svg" viewBox="0 0 778.72 778.72"><defs><linearGradient x1="0" y1="0" x2="1" y2="0" gradientUnits="userSpaceOnUse" gradientTransform="matrix(0 584.04474 584.04474 0 642 241.839)" spreadMethod="pad" id="a"><stop offset="0" stop-color="#25cf43"/><stop offset="1" stop-color="#61fd7d"/></linearGradient></defs><path d="M482.751 825.596c-13.025-.463-29.812-1.482-37.442-3.022-11.647-2.352-22.646-5.918-31.793-10.58-10.747-5.477-20.379-12.465-28.696-20.769-8.336-8.32-15.352-17.961-20.851-28.724-4.649-9.098-8.213-20.03-10.575-31.611-1.571-7.707-2.61-24.619-3.081-37.728a525.205 525.205 0 01-.289-15.49l-.046-287.576c0-3.185.097-10.121.287-15.485.463-13.024 1.482-29.811 3.023-37.441 2.351-11.646 5.918-22.646 10.579-31.793 5.478-10.748 12.465-20.378 20.769-28.696 8.32-8.335 17.962-15.351 28.724-20.851 9.099-4.648 20.031-8.213 31.611-10.575 7.707-1.571 24.62-2.61 37.729-3.08 5.356-.192 12.291-.29 15.489-.29l287.576-.046c3.186 0 10.122.096 15.484.287 13.025.464 29.813 1.482 37.442 3.023 11.647 2.352 22.647 5.919 31.793 10.579 10.747 5.478 20.379 12.466 28.696 20.769 8.335 8.321 15.351 17.961 20.851 28.724 4.648 9.099 8.214 20.03 10.575 31.611 1.572 7.707 2.61 24.621 3.081 37.729.192 5.357.289 12.291.289 15.489l.047 287.576c0 3.186-.097 10.122-.288 15.485-.464 13.024-1.482 29.811-3.023 37.441-2.351 11.647-5.918 22.646-10.579 31.793-5.477 10.748-12.466 20.379-20.768 28.697-8.321 8.334-17.963 15.351-28.725 20.85-9.099 4.649-20.03 8.214-31.611 10.575-7.707 1.571-24.62 2.61-37.728 3.08-5.358.193-12.292.29-15.49.29l-287.576.046a524.82 524.82 0 01-15.484-.287" fill="url(#a)" transform="matrix(1.33333 0 0 -1.33333 -466.637 1101.177)"/><path d="M524.354 440.616c-6.936-3.47-41.036-20.245-47.395-22.558-6.357-2.314-10.98-3.471-15.604 3.47-4.624 6.942-17.916 22.559-21.963 27.187-4.045 4.627-8.09 5.207-15.026 1.735-6.936-3.47-29.284-10.792-55.776-34.415-20.62-18.384-34.54-41.092-38.586-48.033-4.045-6.942-.43-10.694 3.043-14.151 3.119-3.105 6.935-8.097 10.403-12.147 3.468-4.05 4.624-6.941 6.936-11.568 2.312-4.628 1.156-8.677-.58-12.148-1.732-3.47-15.603-37.598-21.383-51.481-5.63-13.52-11.348-11.69-15.605-11.903-4.042-.201-8.67-.244-13.294-.244-4.624 0-12.137 1.736-18.496 8.676-6.357 6.942-24.274 23.718-24.274 57.844 0 34.128 24.853 67.099 28.32 71.727 3.469 4.628 48.909 74.663 118.485 104.696 16.548 7.144 29.468 11.41 39.54 14.607 16.616 5.276 31.736 4.532 43.687 2.746 13.325-1.99 41.036-16.774 46.816-32.97 5.778-16.196 5.778-30.08 4.045-32.971-1.733-2.892-6.357-4.628-13.293-8.099M397.8 613.355h-.093c-41.4-.016-82.005-11.133-117.428-32.148l-8.425-5-87.322 22.9 23.308-85.11-5.486-8.726c-23.095-36.723-35.292-79.167-35.275-122.747.05-127.168 103.55-230.628 230.813-230.628 61.624.024 119.552 24.047 163.112 67.642 43.56 43.596 67.536 101.545 67.512 163.173-.052 127.177-103.55 230.644-230.716 230.644M594.158 186.41c-52.408-52.452-122.104-81.352-196.36-81.381-153 0-277.524 124.476-277.586 277.477-.02 48.908 12.762 96.65 37.052 138.73l-39.38 143.797 147.152-38.587c40.544 22.107 86.192 33.756 132.65 33.776h.116c152.985 0 277.52-124.492 277.582-277.495.028-74.146-28.817-143.866-81.226-196.317" fill="#fff" fill-rule="evenodd"/></svg>