<?xml version="1.0" ?><svg style="enable-background:new 0 0 64 64;" version="1.1" viewBox="0 0 64 64" xml:space="preserve" xmlns="http://www.w3.org/2000/svg" xmlns:xlink="http://www.w3.org/1999/xlink"><style type="text/css">
	.st0{fill:#4267B2;}
	.st1{fill:url(#SVGID_1_);}
	.st2{fill:#FFFFFF;}
	.st3{fill:#C2191E;}
	.st4{fill:#1DA1F3;}
	.st5{fill:#FEFE00;}
	.st6{fill:#25D366;stroke:#FFFFFF;stroke-width:5;stroke-miterlimit:10;}
	.st7{fill:#CB2027;}
	.st8{fill:#0077B5;}
	.st9{fill:url(#SVGID_2_);}
	.st10{fill:url(#SVGID_3_);}
	.st11{fill:#FF004F;}
	.st12{fill:#00F7EF;}
	.st13{fill:#5181B8;}
	.st14{fill:#395976;}
	.st15{fill:#F58220;}
	.st16{fill:#E6162D;}
	.st17{fill:#FF9933;}
	.st18{fill:#FF4500;}
	.st19{fill:#0F88EB;}
</style><g id="guidlines"/><g id="FB"/><g id="ig"/><g id="yt"/><g id="twitter"/><g id="snapchat"/><g id="WA"/><g id="Pinterrest"/><g id="Layer_9"/><g id="Layer_10"/><g id="Layer_11"/><g id="Layer_12"/><g id="Layer_13"/><g id="Layer_14"/><g id="Layer_15"/><g id="Layer_16"><g><path class="st19" d="M50,62H14C7.3725829,62,2,56.6274185,2,50V14C2,7.3725829,7.3725829,2,14,2h36    c6.6274185,0,12,5.3725829,12,12v36C62,56.6274185,56.6274185,62,50,62z"/><g><path class="st2" d="M26.2162476,38.015625l-1.713501,1.3327026c0.3545532-1.5984497,0.6206055-3.3781128,0.8196411-5.1764526     h8.0188599c0-2.96875-1.0535889-3-1.0535889-3s-3.1391602,0-6.690979,0     c0.3748169-5.0420532,0.3070679-9.479187,0.3070679-9.479187h6.6875v-1.1315308     c0-0.9068604-0.7351074-1.6419678-1.6419678-1.6419678H19.7702637l0,0l1.8209839-5.4973135     c-1.5-0.0625-3.4375,0.625-4.375,3.499999s-3.75,9.5-3.75,9.5c3.75,0,4.8125-3,4.8125-3l0.5728149-1.729187l0,0h3.8021851     l-0.0625,9.479187c-3.1615601,0-6.0524902,0-6.78125,0c-1.78125,0-2.15625,3-2.15625,3h8.5845947     c-1.8969116,11.9562988-9.3345947,16.3125-9.3345947,16.3125c6.125,0.5625,7.125-1.25,10.1875-6.9375     c0.4821167-0.8953857,0.881897-2.0510864,1.2137451-3.3619385l6.7550049,8.3619385c0,0,0.90625-3.875-0.15625-5.125     S26.2162476,38.015625,26.2162476,38.015625z"/><path class="st2" d="M35.1062622,18.2993774v28.1199951H38.15625l1.0100098,3.3800049l5.3499756-3.3800049h6.5800171V18.2993774     H35.1062622z M47.8362427,43.1693726h-3.5599976l-3.7199707,2.3800049l-0.8200073-2.3800049h-1.3800049V21.5493774h9.4799805     V43.1693726z"/></g></g></g><g id="Layer_17"/></svg>