<svg width="36" height="24" viewBox="0 0 36 24" fill="none" xmlns="http://www.w3.org/2000/svg">
  <path
    d="M8.01388 5.85572C12.5495 5.85572 16.002 9.51132 16.002 14.3177C16.002 19.1242 12.5495 22.7798 8.01388 22.7798C3.47823 22.7798 0.0595703 19.1242 0.0595703 14.3177C0.0595703 9.51132 3.47823 5.85572 8.01388 5.85572ZM1.85352 14.3177C1.85352 18.278 4.45982 21.1889 8.01388 21.1889C11.5679 21.1889 14.2081 18.278 14.2081 14.3177C14.2081 10.3575 11.6695 7.44658 7.98003 7.44658C4.29058 7.44658 1.85352 10.4252 1.85352 14.3177Z"
    fill="black" />
  <path
    d="M27.375 5.85572C31.9106 5.85572 35.3631 9.51132 35.3631 14.3177C35.3631 19.1242 31.9106 22.7798 27.375 22.7798C22.8393 22.7798 19.4207 19.1242 19.4207 14.3177C19.4207 9.51132 22.8393 5.85572 27.375 5.85572ZM21.2146 14.3177C21.2146 18.278 23.8209 21.1889 27.375 21.1889C30.929 21.1889 33.5692 18.278 33.5692 14.3177C33.5692 10.3575 31.0306 7.44658 27.3411 7.44658C23.6517 7.44658 21.2146 10.4252 21.2146 14.3177Z"
    fill="black" />
  <path d="M19.8556 22.3059L17.7114 24L15.5654 22.3059L17.7114 20.6118L19.8556 22.3059Z"
    fill="#0072FF" />
  <path
    d="M33.515 0.0154049C32.9193 0.472354 32.3253 0.930996 31.7312 1.38795C29.1046 1.49626 24.6773 2.10553 20.5343 5.06216C19.6018 5.72897 18.7996 6.42962 18.1108 7.12351L17.6335 7.60077L17.1546 7.12351C16.4657 6.42962 15.6635 5.72897 14.731 5.06216C10.5897 2.10553 6.16069 1.49626 3.53577 1.38795C2.94004 0.930996 2.34601 0.472354 1.75198 0.0154049C6.9172 -0.162298 11.6796 1.20009 15.5214 3.96379C16.2559 4.49012 16.9633 5.074 17.6335 5.70189C18.3037 5.074 19.0111 4.49012 19.7439 3.96379C23.5874 1.20009 28.3498 -0.162298 33.515 0.0154049Z"
    fill="#0072FF" />
  <path d="M9.82475 14.3178H8.0308V17.3438H9.82475V14.3178Z" fill="#0072FF" />
  <path d="M27.3919 14.3178H25.598V17.3438H27.3919V14.3178Z" fill="#0072FF" />
</svg>
  