<?xml version="1.0" encoding="UTF-8"?>
<svg version="1.1" xmlns="http://www.w3.org/2000/svg" width="500" height="500">
<path d="M0 0 C4.69132741 3.09449081 8.35816096 7.35316283 12.0390625 11.55078125 C15.46200696 15.37834819 19.00498602 19.04098129 22.69140625 22.61328125 C23.17219131 23.08145264 23.65297638 23.54962402 24.14833069 24.03198242 C26.12339031 25.95317435 28.10017998 27.87198128 30.0949707 29.77270508 C31.57609387 31.18739953 33.04091027 32.61738058 34.50390625 34.05078125 C35.36830322 34.88262939 36.2327002 35.71447754 37.12329102 36.5715332 C39.35128323 39.4545615 39.44851352 40.44713535 39 44 C37.60879517 45.99920654 37.60879517 45.99920654 35.63525391 47.94824219 C34.90094147 48.68540466 34.16662903 49.42256714 33.4100647 50.18206787 C32.60700897 50.96245422 31.80395325 51.74284058 30.9765625 52.546875 C30.16005219 53.35868225 29.34354187 54.1704895 28.50228882 55.00689697 C25.88798974 57.59982287 23.25655903 60.17460522 20.625 62.75 C18.85829012 64.50020765 17.09265129 66.25149716 15.328125 68.00390625 C12.09938984 71.19864175 8.87033584 74.39295375 5.62353516 77.56933594 C4.97067535 78.20933533 4.31781555 78.84933472 3.64517212 79.50872803 C1.52896442 81.42697183 0.19670953 81.96253152 -2.625 82.5 C-6.32777898 81.95144015 -7.06466254 81.35801998 -9.73828125 78.92431641 C-10.44114258 78.28681458 -11.14400391 77.64931274 -11.86816406 76.99249268 C-17.29020812 71.92484986 -22.57817702 66.72712652 -27.84814453 61.50195312 C-29.29175981 60.07504408 -30.74073837 58.65354225 -32.19482422 57.23730469 C-34.30871052 55.17796111 -36.40587167 53.10284642 -38.5 51.0234375 C-39.15299072 50.39311615 -39.80598145 49.7627948 -40.47875977 49.1133728 C-44.75005342 44.82161362 -44.75005342 44.82161362 -45.77368164 41.45678711 C-44.57570934 37.65268638 -41.93829995 35.3470905 -39.12109375 32.66796875 C-38.51620621 32.07252762 -37.91131866 31.47708649 -37.2881012 30.86360168 C-35.34935181 28.95942804 -33.39433676 27.07306524 -31.4375 25.1875 C-28.88999111 22.70645064 -26.34915312 20.21863088 -23.80859375 17.73046875 C-23.19921967 17.13668427 -22.58984558 16.54289978 -21.96200562 15.93112183 C-18.24568708 12.29173274 -14.70630519 8.57858386 -11.41430664 4.54418945 C-7.91060289 0.71872316 -5.25430958 -1.01044415 0 0 Z " fill="#134A6F" transform="translate(253,102)"/>
<path d="M0 0 C4.58566635 1.76952333 7.78222957 5.42861678 11.15467834 8.88327026 C11.98918015 9.71248993 12.82368195 10.54170959 13.68347168 11.39605713 C15.43861114 13.15013648 17.18380442 14.91421724 18.91957092 16.68746948 C21.58443289 19.40279585 24.28707732 22.07574343 26.99647522 24.74655151 C28.69744755 26.45640232 30.39609838 28.16856638 32.09217834 29.88327026 C32.90344681 30.68350616 33.71471527 31.48374207 34.55056763 32.30822754 C39.86737704 37.80798838 39.86737704 37.80798838 40.51600647 41.79537964 C38.18939307 46.45775433 34.77972529 49.80062503 31.11561584 53.46139526 C29.91431786 54.68054123 29.91431786 54.68054123 28.68875122 55.92431641 C26.99283462 57.63676321 25.29029778 59.34267542 23.5816803 61.04244995 C20.97402284 63.64597406 18.40291658 66.28218289 15.83241272 68.92233276 C14.17892958 70.58329591 12.52339613 72.24222101 10.86561584 73.89889526 C10.10071335 74.68940277 9.33581085 75.47991028 8.54772949 76.29437256 C2.44795883 82.26556335 2.44795883 82.26556335 -1.97422791 82.76705933 C-7.57589917 82.13180447 -11.08567223 77.75210237 -14.81407166 73.89889526 C-15.62163406 73.09187164 -16.42919647 72.28484802 -17.26123047 71.45336914 C-18.96074548 69.74616588 -20.65047128 68.02916874 -22.33091736 66.30319214 C-24.90460342 63.66401355 -27.51125787 61.06123049 -30.12461853 58.46139526 C-31.77317103 56.79677422 -33.41972566 55.13017171 -35.06407166 53.46139526 C-35.84314377 52.68303314 -36.62221588 51.90467102 -37.42489624 51.10272217 C-40.29252771 48.13302516 -42.61583484 45.49990304 -44.46446228 41.79537964 C-43.60998432 36.54255298 -39.72377644 33.51632494 -36.04063416 29.88327026 C-35.21474289 29.04831024 -34.38885162 28.21335022 -33.53793335 27.35308838 C-31.78525307 25.59125974 -30.02358785 23.83833098 -28.25376892 22.09371948 C-25.55182854 19.42164151 -22.89214641 16.71211005 -20.23399353 13.99655151 C-18.52611854 12.28970809 -16.81590549 10.58520029 -15.10313416 8.88327026 C-14.31008377 8.07088898 -13.51703339 7.25850769 -12.69995117 6.42150879 C-5.43341682 -0.6357177 -5.43341682 -0.6357177 0 0 Z " fill="#508B9B" transform="translate(251.97422790527344,199.21829223632813)"/>
<path d="M0 0 C2.04389954 1.4022522 2.04389954 1.4022522 4.0559082 3.39306641 C4.81631912 4.13448883 5.57673004 4.87591125 6.36018372 5.63980103 C7.1655809 6.45218231 7.97097809 7.2645636 8.80078125 8.1015625 C10.0553437 9.345392 10.0553437 9.345392 11.33525085 10.61434937 C13.1005929 12.3719053 14.85954592 14.13589839 16.61254883 15.90576172 C19.30055409 18.61296876 22.01653779 21.28961593 24.73632812 23.96484375 C26.44708606 25.67531131 28.15612973 27.3874955 29.86328125 29.1015625 C30.67879959 29.9017984 31.49431793 30.7020343 32.33454895 31.52651978 C33.07919907 32.28685516 33.82384918 33.04719055 34.59106445 33.83056641 C35.25104935 34.49230865 35.91103424 35.1540509 36.59101868 35.83584595 C38.50267943 38.77210089 38.48439823 40.55900968 38 44 C36.62225342 46.11946106 36.62225342 46.11946106 34.66699219 48.06176758 C33.93913513 48.79885452 33.21127808 49.53594147 32.46136475 50.29536438 C31.26619232 51.45820198 31.26619232 51.45820198 30.046875 52.64453125 C29.23510803 53.45492355 28.42334106 54.26531586 27.5869751 55.1002655 C25.86892948 56.80925326 24.14360365 58.51094879 22.41162109 60.20581055 C19.75824529 62.80442488 17.12966016 65.42624248 14.50390625 68.05273438 C12.83213803 69.70975594 11.15900579 71.36540272 9.484375 73.01953125 C8.69569031 73.80487747 7.90700562 74.59022369 7.09442139 75.39936829 C6.35395569 76.12069443 5.61348999 76.84202057 4.85058594 77.58520508 C4.20216736 78.22218826 3.55374878 78.85917145 2.88568115 79.51545715 C0.81526696 81.14543504 -0.36270175 81.86654815 -3 82 C-4.86582947 80.82911682 -4.86582947 80.82911682 -6.76147461 79.02954102 C-7.45876678 78.37841339 -8.15605896 77.72728577 -8.8744812 77.056427 C-9.5759024 76.37780609 -10.27732361 75.69918518 -11 75 C-11.64301056 74.39590302 -12.28602112 73.79180603 -12.94851685 73.16940308 C-17.13442664 69.21693786 -21.2315436 65.1721017 -25.33032227 61.12963867 C-26.82755528 59.65926185 -28.33190553 58.19609981 -29.84301758 56.73999023 C-32.03857499 54.62315894 -34.210617 52.48455384 -36.37890625 50.33984375 C-37.05893204 49.69280991 -37.73895782 49.04577606 -38.43959045 48.37913513 C-42.86746093 43.93183002 -42.86746093 43.93183002 -43.41479492 40.08374023 C-41.2099797 35.27804204 -37.71789998 32.00591309 -33.984375 28.3203125 C-32.77240448 27.10116653 -32.77240448 27.10116653 -31.53594971 25.85739136 C-29.82714889 24.1451923 -28.11203437 22.43927442 -26.39111328 20.73925781 C-23.75601149 18.13095036 -21.1486591 15.49702796 -18.54296875 12.859375 C-16.8792053 11.19891497 -15.21389181 9.5400063 -13.546875 7.8828125 C-12.76648865 7.09230499 -11.98610229 6.30179749 -11.18206787 5.48733521 C-10.4449054 4.76593353 -9.70774292 4.04453186 -8.94824219 3.30126953 C-7.98346954 2.34246384 -7.98346954 2.34246384 -6.99920654 1.36428833 C-4.4116841 -0.40147554 -3.07602763 -0.51341712 0 0 Z " fill="#201E42" transform="translate(302,151)"/>
<path d="M0 0 C1.99920654 1.36428833 1.99920654 1.36428833 3.94824219 3.30126953 C4.68540466 4.0226712 5.42256714 4.74407288 6.18206787 5.48733521 C7.3526474 6.67309647 7.3526474 6.67309647 8.546875 7.8828125 C9.35868225 8.68983612 10.1704895 9.49685974 11.00689697 10.32833862 C12.72087866 12.03891718 14.42855954 13.75582886 16.13037109 15.47851562 C18.73660356 18.11146622 21.36834098 20.71676213 24.00390625 23.3203125 C25.66566772 24.98537867 27.32587715 26.65199555 28.984375 28.3203125 C29.77285828 29.09867462 30.56134155 29.87703674 31.37371826 30.6789856 C34.27735255 33.64578097 36.63237207 36.27135144 38.5078125 39.98852539 C37.61858983 45.26187234 33.63015182 48.25875975 29.890625 51.86328125 C29.05287537 52.6958696 28.21512573 53.52845795 27.35198975 54.38627625 C25.57770908 56.14340807 23.79508765 57.89215149 22.00488281 59.63305664 C19.25899168 62.30375455 16.53782003 64.99772062 13.8203125 67.69726562 C12.09513786 69.39984493 10.36861961 71.10106408 8.640625 72.80078125 C7.82176819 73.60800125 7.00291138 74.41522125 6.15924072 75.24690247 C5.39545105 75.98824936 4.63166138 76.72959625 3.84472656 77.4934082 C3.17330627 78.14815628 2.50188599 78.80290436 1.81011963 79.47749329 C0 81 0 81 -3 82 C-8.24627802 79.70287928 -12.1308634 75.22927102 -16.14453125 71.26171875 C-16.91431808 70.50333206 -17.68410492 69.74494537 -18.47721863 68.96357727 C-20.09788053 67.3617635 -21.715687 65.75705619 -23.33081055 64.1496582 C-25.80744688 61.69251335 -28.30458037 59.25750498 -30.80273438 56.82226562 C-32.37631349 55.26174003 -33.94862354 53.69993349 -35.51953125 52.13671875 C-36.26942825 51.41151535 -37.01932526 50.68631195 -37.79194641 49.93913269 C-38.47653427 49.24854263 -39.16112213 48.55795258 -39.86645508 47.84643555 C-40.47314529 47.24703659 -41.07983551 46.64763763 -41.70491028 46.03007507 C-43.52839052 43.1717389 -43.45055454 41.32781216 -43 38 C-41.59101868 35.83584595 -41.59101868 35.83584595 -39.59106445 33.83056641 C-38.84641434 33.07023102 -38.10176422 32.30989563 -37.33454895 31.52651978 C-36.51903061 30.72628387 -35.70351227 29.92604797 -34.86328125 29.1015625 C-34.03168991 28.26660248 -33.20009857 27.43164246 -32.3433075 26.57138062 C-30.58258073 24.81095271 -28.81436569 23.05798724 -27.03930664 21.31201172 C-24.32086615 18.63324405 -21.63297428 15.92638362 -18.94726562 13.21484375 C-17.23352064 11.5086573 -15.51808123 9.80417074 -13.80078125 8.1015625 C-12.99538406 7.28918121 -12.18998688 6.47679993 -11.36018372 5.63980103 C-10.21956734 4.52766739 -10.21956734 4.52766739 -9.0559082 3.39306641 C-8.39194534 2.73609772 -7.72798248 2.07912903 -7.04389954 1.4022522 C-4.43333027 -0.38877345 -3.10778679 -0.52151796 0 0 Z " fill="#201E41" transform="translate(203,151)"/>
<path d="M0 0 C2.69548033 1.3181195 4.3557069 2.63884005 6.47247314 4.74752808 C7.18961487 5.45521332 7.90675659 6.16289856 8.64562988 6.89202881 C9.78339874 8.03890671 9.78339874 8.03890671 10.94415283 9.20895386 C12.12856964 10.3890654 12.12856964 10.3890654 13.33691406 11.59301758 C15.00135178 13.25541661 16.66201812 14.92159906 18.31915283 16.59127808 C20.86016004 19.14836144 23.41678229 21.68903947 25.97540283 24.22848511 C27.59094914 25.84601346 29.2055648 27.46447199 30.81915283 29.08395386 C31.58576233 29.84449066 32.35237183 30.60502747 33.14221191 31.38861084 C33.846745 32.1026004 34.55127808 32.81658997 35.27716064 33.55221558 C35.89939514 34.17683685 36.52162964 34.80145813 37.16271973 35.44500732 C38.78388984 37.49112949 39.4781028 38.66590069 39.61602783 41.27926636 C38.44514465 43.14509583 38.44514465 43.14509583 36.64556885 45.04074097 C35.99444122 45.73803314 35.3433136 46.43532532 34.67245483 47.15374756 C33.99383392 47.85516876 33.31521301 48.55658997 32.61602783 49.27926636 C32.01193085 49.92227692 31.40783386 50.56528748 30.78543091 51.2277832 C26.83296569 55.413693 22.78812954 59.51080996 18.7456665 63.60958862 C17.27528968 65.10682164 15.81212764 66.61117189 14.35601807 68.12228394 C12.23918677 70.31784134 10.10058168 72.48988336 7.95587158 74.65817261 C7.30883774 75.33819839 6.66180389 76.01822418 5.99516296 76.71885681 C1.5189514 81.17550741 1.5189514 81.17550741 -2.37957764 81.62350464 C-6.71624403 79.68317592 -9.51880015 76.78152769 -12.79412842 73.39254761 C-13.4840538 72.69791916 -14.17397919 72.00329071 -14.8848114 71.28761292 C-17.08399586 69.06711868 -19.26495657 66.82960708 -21.44647217 64.59176636 C-22.91737599 63.10434826 -24.38937031 61.61800773 -25.86248779 60.13278198 C-29.73541346 56.2114581 -33.60310116 52.28967054 -37.38397217 48.27926636 C-37.91126923 47.74224091 -38.43856628 47.20521545 -38.98184204 46.6519165 C-40.40130615 45.11984253 -40.40130615 45.11984253 -42.38397217 42.27926636 C-42.11495845 38.1586229 -40.79097422 36.19021996 -37.90570068 33.33102417 C-37.17146378 32.59386169 -36.43722687 31.85669922 -35.68074036 31.09719849 C-34.88284592 30.31681213 -34.08495148 29.53642578 -33.26287842 28.73239136 C-32.44778305 27.92058411 -31.63268768 27.10877686 -30.79289246 26.27236938 C-29.0699843 24.55987812 -27.34232195 22.85215861 -25.61029053 21.14889526 C-22.95142861 18.53414058 -20.30618101 15.90622643 -17.66326904 13.27536011 C-15.98891131 11.61442478 -14.31380634 9.95424231 -12.63787842 8.29489136 C-11.84200821 7.50640808 -11.046138 6.7179248 -10.22615051 5.9055481 C-9.48876144 5.18099426 -8.75137238 4.45644043 -7.99163818 3.70993042 C-7.34179459 3.06993103 -6.69195099 2.42993164 -6.02241516 1.77053833 C-3.06055107 -0.92528015 -3.06055107 -0.92528015 0 0 Z " fill="#134A6E" transform="translate(153.38397216796875,199.72073364257813)"/>
<path d="M0 0 C2.68978962 1.3143169 4.35540205 2.63188543 6.47247314 4.73066711 C7.18961487 5.43512466 7.90675659 6.13958221 8.64562988 6.86538696 C9.78339874 8.00755928 9.78339874 8.00755928 10.94415283 9.17280579 C11.73376404 9.95717514 12.52337524 10.74154449 13.33691406 11.54968262 C15.00143703 13.20779058 16.66210137 14.86977989 18.31915283 16.53535461 C20.85851424 19.08323574 23.41597568 21.61189785 25.97540283 24.13960266 C27.59111743 25.75370543 29.20573861 27.36890361 30.81915283 28.98530579 C31.58576233 29.7406813 32.35237183 30.49605682 33.14221191 31.27432251 C33.846745 31.98823654 34.55127808 32.70215057 35.27716064 33.43769836 C36.21051239 34.37129936 36.21051239 34.37129936 37.16271973 35.32376099 C38.89885145 37.65863614 39.35191794 39.39680738 39.61602783 42.27827454 C38.42852783 44.01655579 38.42852783 44.01655579 36.61602783 45.59077454 C34.07077922 47.84627387 31.79899803 50.18489295 29.58868408 52.76264954 C25.12143115 57.92005791 20.38502657 62.80265614 15.59088135 67.65351868 C14.55881928 68.70229828 13.53217447 69.75643423 12.51080322 70.81562805 C11.01493274 72.36627488 9.50324848 73.8998021 7.98712158 75.43061829 C7.09952148 76.33803772 6.21192139 77.24545715 5.29742432 78.18037415 C2.04402546 80.72580403 0.77244437 81.67556515 -3.38397217 81.27827454 C-6.71504096 78.96552702 -9.43458116 76.11100557 -12.24725342 73.20405579 C-13.49613594 71.95098885 -13.49613594 71.95098885 -14.77024841 70.67260742 C-16.52746387 68.90262512 -18.27620519 67.12419554 -20.01702881 65.33808899 C-22.68610913 62.60140007 -25.38086853 59.89226194 -28.08123779 57.18647766 C-29.78398519 55.46472708 -31.48520983 53.74146893 -33.18475342 52.01655579 C-34.39558342 50.7960125 -34.39558342 50.7960125 -35.63087463 49.55081177 C-36.37222153 48.78709763 -37.11356842 48.02338348 -37.87738037 47.23652649 C-38.53212845 46.56732681 -39.18687653 45.89812714 -39.86146545 45.20864868 C-41.51107579 43.11712087 -42.25681582 41.94369081 -42.38397217 39.27827454 C-41.21034241 37.40228271 -41.21034241 37.40228271 -39.40863037 35.49873352 C-38.7576236 34.80150177 -38.10661682 34.10427002 -37.43588257 33.38591003 C-36.75875214 32.69039032 -36.0816217 31.99487061 -35.38397217 31.27827454 C-34.78362152 30.6526059 -34.18327087 30.02693726 -33.56472778 29.38230896 C-31.72369313 27.48708097 -29.86073638 25.61626742 -27.98944092 23.75093079 C-27.31601151 23.07654465 -26.64258209 22.40215851 -25.94874573 21.70733643 C-24.54076777 20.29868386 -23.13154993 18.89126955 -21.72113037 17.48506165 C-19.55613612 15.32547681 -17.39659961 13.16053571 -15.23748779 10.99507141 C-13.8634598 9.62170334 -12.48912211 8.24864503 -11.11444092 6.87593079 C-10.46863571 6.22810135 -9.82283051 5.58027191 -9.15745544 4.91281128 C-8.55955704 4.31806503 -7.96165863 3.72331879 -7.34564209 3.11054993 C-6.82048508 2.58618851 -6.29532806 2.06182709 -5.7542572 1.52157593 C-3.5621149 -0.46742163 -2.91203629 -0.88159198 0 0 Z " fill="#134A6F" transform="translate(349.38397216796875,199.7217254638672)"/>
<path d="M0 0 C2.00593567 1.51818848 2.00593567 1.51818848 3.96411133 3.49414062 C4.7045015 4.23160522 5.44489166 4.96906982 6.2077179 5.72888184 C6.9912413 6.52991333 7.77476471 7.33094482 8.58203125 8.15625 C9.39621017 8.97371704 10.2103891 9.79118408 11.04924011 10.63342285 C12.76592805 12.36052658 14.47784465 14.09238413 16.18530273 15.82861328 C18.8110148 18.49848982 21.44994109 21.15469938 24.09179688 23.80859375 C25.75598877 25.48620533 27.41942682 27.16456514 29.08203125 28.84375 C29.87567581 29.64478149 30.66932037 30.44581299 31.48701477 31.27111816 C32.21164413 32.00858276 32.9362735 32.74604736 33.68286133 33.50585938 C34.32508133 34.15792358 34.96730133 34.80998779 35.62898254 35.48181152 C37 37 37 37 37 38 C10.6 38 -15.8 38 -43 38 C-41.30398312 34.60796623 -40.25336202 33.00427231 -37.68359375 30.44067383 C-37.00949463 29.76349808 -36.33539551 29.08632233 -35.64086914 28.3886261 C-34.91375732 27.6686998 -34.18664551 26.9487735 -33.4375 26.20703125 C-32.69040771 25.46039719 -31.94331543 24.71376312 -31.17358398 23.94450378 C-29.595627 22.36956469 -28.01524347 20.79705358 -26.43261719 19.22680664 C-24.0039759 16.81644597 -21.58345607 14.39815497 -19.1640625 11.97851562 C-17.63067997 10.45004753 -16.09684132 8.92203687 -14.5625 7.39453125 C-13.83538818 6.66853226 -13.10827637 5.94253326 -12.35913086 5.1945343 C-11.68503174 4.52681503 -11.01093262 3.85909576 -10.31640625 3.17114258 C-9.72287354 2.58142166 -9.12934082 1.99170074 -8.51782227 1.3841095 C-5.51571644 -1.35352539 -3.79984601 -1.13134316 0 0 Z " fill="#134A6E" transform="translate(303,249)"/>
<path d="M0 0 C4.73723233 2.17710622 7.91856855 5.60880042 11.52880859 9.31225586 C12.31937653 10.10515518 13.10994446 10.8980545 13.92446899 11.71498108 C15.58934293 13.38958371 17.24818995 15.07019695 18.90136719 16.75634766 C21.44210652 19.34663263 24.00116833 21.91763822 26.56396484 24.48608398 C28.17834918 26.11454847 29.79166826 27.74406984 31.40380859 29.37475586 C32.17244232 30.14875229 32.94107605 30.92274872 33.73300171 31.72019958 C34.78507309 32.79625206 34.78507309 32.79625206 35.85839844 33.89404297 C36.47983734 34.52612167 37.10127625 35.15820038 37.74154663 35.80943298 C39.06787109 37.40991211 39.06787109 37.40991211 39.06787109 39.40991211 C12.66787109 39.40991211 -13.73212891 39.40991211 -40.93212891 39.40991211 C-34.16658413 31.51677653 -34.16658413 31.51677653 -31.40869141 28.66186523 C-30.78784668 28.0185022 -30.16700195 27.37513916 -29.52734375 26.71228027 C-26.73884028 23.85173182 -23.94246805 20.99914781 -21.13720703 18.1550293 C-19.65997791 16.65097715 -18.18996255 15.13980769 -16.72705078 13.62182617 C-14.60364021 11.41966534 -12.45843424 9.24103753 -10.30712891 7.06616211 C-9.65695801 6.38299927 -9.00678711 5.69983643 -8.33691406 4.99597168 C-3.86129544 0.53980975 -3.86129544 0.53980975 0 0 Z " fill="#134A6E" transform="translate(200.93212890625,247.590087890625)"/>
<path d="M0 0 C6.0946875 -0.0928125 6.0946875 -0.0928125 12.3125 -0.1875 C13.59036377 -0.21481201 14.86822754 -0.24212402 16.18481445 -0.27026367 C17.1924585 -0.27775635 18.20010254 -0.28524902 19.23828125 -0.29296875 C20.26993408 -0.3086792 21.30158691 -0.32438965 22.36450195 -0.34057617 C25 0 25 0 26.79760742 1.33081055 C29.91099644 5.65288988 29.33207315 10.92171058 29 16 C28.125 19.0625 28.125 19.0625 27 21 C26.34 21.33 25.68 21.66 25 22 C25.474375 22.433125 25.94875 22.86625 26.4375 23.3125 C29.55208311 26.67624976 29.20622332 30.45898018 29.1640625 34.7734375 C28.9350038 37.88209129 28.25398444 40.74601556 26 43 C24.07332493 43.08748207 22.14348139 43.10697334 20.21484375 43.09765625 C19.16159912 43.09515869 18.10835449 43.09266113 17.02319336 43.09008789 C15.67491455 43.08098389 14.32663574 43.07187988 12.9375 43.0625 C8.668125 43.041875 4.39875 43.02125 0 43 C0 28.81 0 14.62 0 0 Z M12 10 C12 12.31 12 14.62 12 17 C13.32 16.67 14.64 16.34 16 16 C16 14.35 16 12.7 16 11 C14.68 10.67 13.36 10.34 12 10 Z M12 27 C12 28.98 12 30.96 12 33 C13.32 33 14.64 33 16 33 C16 31.35 16 29.7 16 28 C14.68 27.67 13.36 27.34 12 27 Z " fill="#14496D" transform="translate(269,293)"/>
<path d="M0 0 C6.3421875 -0.12375 6.3421875 -0.12375 12.8125 -0.25 C14.8076062 -0.30462402 14.8076062 -0.30462402 16.84301758 -0.36035156 C17.89126709 -0.3703418 18.9395166 -0.38033203 20.01953125 -0.390625 C21.62985229 -0.4220459 21.62985229 -0.4220459 23.27270508 -0.45410156 C26 0 26 0 27.84887695 1.83105469 C29.42764461 4.8057677 29.39806303 7.14817295 29.375 10.5 C29.38273437 11.6240625 29.39046875 12.748125 29.3984375 13.90625 C28.97209801 17.21665072 28.23700419 18.58545579 26 21 C26.48082031 21.46921875 26.96164063 21.9384375 27.45703125 22.421875 C29.73913009 26.23500217 29.56801863 29.88039556 29.6875 34.25 C29.73874023 35.51070313 29.73874023 35.51070313 29.79101562 36.796875 C29.87323568 38.86412204 29.93830157 40.93203874 30 43 C25.71 43 21.42 43 17 43 C16.67 37.72 16.34 32.44 16 27 C15.01 27 14.02 27 13 27 C13 32.28 13 37.56 13 43 C8.71 43 4.42 43 0 43 C0 28.81 0 14.62 0 0 Z M13 10 C13 12.31 13 14.62 13 17 C14.32 16.34 15.64 15.68 17 15 C16.73323796 13.01508358 16.73323796 13.01508358 16 11 C15.01 10.67 14.02 10.34 13 10 Z " fill="#14496C" transform="translate(157,293)"/>
<path d="M0 0 C1.06154297 -0.03673828 1.06154297 -0.03673828 2.14453125 -0.07421875 C5.59651017 -0.09350355 7.94598404 0.28039807 11.0078125 1.8984375 C15.87028567 7.58627512 15.464633 15.18737476 15.4375 22.3125 C15.45361328 23.15490234 15.46972656 23.99730469 15.48632812 24.86523438 C15.49079283 30.66489254 14.8291036 36.15748031 12.125 41.375 C8.32157756 43.91061496 5.16240897 43.77895973 0.75 43.8125 C-0.00539062 43.84537109 -0.76078125 43.87824219 -1.5390625 43.91210938 C-5.7833129 43.95291948 -7.3982325 43.7497818 -10.8515625 41.03515625 C-15.14518242 35.39045516 -14.09662304 28.86232919 -14.125 22.0625 C-14.145625 20.83853516 -14.16625 19.61457031 -14.1875 18.35351562 C-14.19265625 17.16822266 -14.1978125 15.98292969 -14.203125 14.76171875 C-14.2124707 13.68108154 -14.22181641 12.60044434 -14.23144531 11.48706055 C-13.8151161 7.85216434 -12.77786401 5.48652266 -10.875 2.375 C-7.18049796 -0.08800136 -4.27858812 0.00770917 0 0 Z M-0.875 10.375 C-2.70415214 14.03330428 -2.10262535 18.34756365 -2.125 22.375 C-2.145625 23.303125 -2.16625 24.23125 -2.1875 25.1875 C-2.19265625 26.074375 -2.1978125 26.96125 -2.203125 27.875 C-2.2124707 28.6896875 -2.22181641 29.504375 -2.23144531 30.34375 C-2.11381836 31.0140625 -1.99619141 31.684375 -1.875 32.375 C-0.39 33.365 -0.39 33.365 1.125 34.375 C2.3755313 33.34785339 2.3755313 33.34785339 2.23852539 31.15014648 C2.23067017 29.71264038 2.23067017 29.71264038 2.22265625 28.24609375 C2.21943359 27.21162109 2.21621094 26.17714844 2.21289062 25.11132812 C2.20451172 24.02271484 2.19613281 22.93410156 2.1875 21.8125 C2.18298828 20.72001953 2.17847656 19.62753906 2.17382812 18.50195312 C2.16199826 15.79291505 2.14551543 13.08398401 2.125 10.375 C1.135 10.375 0.145 10.375 -0.875 10.375 Z " fill="#134A6E" transform="translate(202.875,292.625)"/>
<path d="M0 0 C0.85078125 0.00322266 1.7015625 0.00644531 2.578125 0.00976562 C3.46757812 0.01814453 4.35703125 0.02652344 5.2734375 0.03515625 C6.170625 0.03966797 7.0678125 0.04417969 7.9921875 0.04882812 C10.21096581 0.06063014 12.42970993 0.07856586 14.6484375 0.09765625 C14.6484375 3.39765625 14.6484375 6.69765625 14.6484375 10.09765625 C11.0184375 10.09765625 7.3884375 10.09765625 3.6484375 10.09765625 C3.6484375 12.40765625 3.6484375 14.71765625 3.6484375 17.09765625 C7.2784375 17.09765625 10.9084375 17.09765625 14.6484375 17.09765625 C14.6484375 20.39765625 14.6484375 23.69765625 14.6484375 27.09765625 C11.0184375 27.09765625 7.3884375 27.09765625 3.6484375 27.09765625 C3.6484375 29.07765625 3.6484375 31.05765625 3.6484375 33.09765625 C7.2784375 33.09765625 10.9084375 33.09765625 14.6484375 33.09765625 C14.6484375 36.39765625 14.6484375 39.69765625 14.6484375 43.09765625 C11.37672903 43.20541609 8.10855204 43.28485076 4.8359375 43.34765625 C3.90716797 43.38117188 2.97839844 43.4146875 2.02148438 43.44921875 C1.12880859 43.46210938 0.23613281 43.475 -0.68359375 43.48828125 C-1.91686401 43.51970215 -1.91686401 43.51970215 -3.17504883 43.55175781 C-5.3515625 43.09765625 -5.3515625 43.09765625 -7.12060547 41.55371094 C-8.80643853 38.19006941 -8.76251585 35.08797154 -8.71484375 31.41015625 C-8.71534225 30.67063721 -8.71584076 29.93111816 -8.71635437 29.16918945 C-8.71401897 27.60918484 -8.70432189 26.04917609 -8.68774414 24.48925781 C-8.6641429 22.10577588 -8.66718797 19.72341296 -8.67382812 17.33984375 C-8.66825109 15.82160794 -8.66114104 14.30337682 -8.65234375 12.78515625 C-8.65325516 12.07464111 -8.65416656 11.36412598 -8.65510559 10.63208008 C-8.60311055 6.99105375 -8.47479456 4.13419206 -6.3515625 1.09765625 C-4.00303722 -0.07660639 -2.61382185 -0.01742548 0 0 Z " fill="#15496C" transform="translate(308.3515625,292.90234375)"/>
<path d="M0 0 C0.78552246 0.01047363 1.57104492 0.02094727 2.38037109 0.03173828 C3.23115234 0.03818359 4.08193359 0.04462891 4.95849609 0.05126953 C6.29267578 0.07640625 6.29267578 0.07640625 7.65380859 0.10205078 C8.99958984 0.11558594 8.99958984 0.11558594 10.37255859 0.12939453 C12.59142182 0.15299946 14.8101483 0.18887116 17.02880859 0.22705078 C17.02880859 3.52705078 17.02880859 6.82705078 17.02880859 10.22705078 C13.72880859 10.22705078 10.42880859 10.22705078 7.02880859 10.22705078 C7.02880859 12.53705078 7.02880859 14.84705078 7.02880859 17.22705078 C8.12193359 17.16517578 9.21505859 17.10330078 10.34130859 17.03955078 C14.02880859 17.22705078 14.02880859 17.22705078 15.90380859 18.53955078 C18.27107377 22.09044854 18.19242464 25.39807275 18.21630859 29.53955078 C18.23048828 30.64943359 18.24466797 31.75931641 18.25927734 32.90283203 C18.01987952 36.35584136 17.36960131 39.04208002 16.02880859 42.22705078 C13.62821043 43.42734986 12.1352021 43.34164821 9.45849609 43.32470703 C8.56259766 43.32148438 7.66669922 43.31826172 6.74365234 43.31494141 C5.33792969 43.30237305 5.33792969 43.30237305 3.90380859 43.28955078 C2.95892578 43.28503906 2.01404297 43.28052734 1.04052734 43.27587891 C-1.2967391 43.26407453 -3.6339731 43.24613877 -5.97119141 43.22705078 C-5.97119141 39.92705078 -5.97119141 36.62705078 -5.97119141 33.22705078 C-2.34119141 33.22705078 1.28880859 33.22705078 5.02880859 33.22705078 C5.02880859 31.24705078 5.02880859 29.26705078 5.02880859 27.22705078 C3.14162109 27.13423828 3.14162109 27.13423828 1.21630859 27.03955078 C-0.92822266 26.93408203 -0.92822266 26.93408203 -2.97119141 26.22705078 C-6.15497832 22.36510298 -6.35233468 19.12712414 -6.28369141 14.22705078 C-6.27982422 13.03080078 -6.27595703 11.83455078 -6.27197266 10.60205078 C-5.89122439 6.3297585 -5.116126 0.58929863 0 0 Z " fill="#15496C" transform="translate(224.97119140625,292.77294921875)"/>
<path d="M0 0 C0.78552246 0.01047363 1.57104492 0.02094727 2.38037109 0.03173828 C3.23115234 0.03818359 4.08193359 0.04462891 4.95849609 0.05126953 C6.29267578 0.07640625 6.29267578 0.07640625 7.65380859 0.10205078 C8.99958984 0.11558594 8.99958984 0.11558594 10.37255859 0.12939453 C12.59142182 0.15299946 14.8101483 0.18887116 17.02880859 0.22705078 C17.02880859 3.52705078 17.02880859 6.82705078 17.02880859 10.22705078 C13.72880859 10.22705078 10.42880859 10.22705078 7.02880859 10.22705078 C7.02880859 12.53705078 7.02880859 14.84705078 7.02880859 17.22705078 C8.12193359 17.18580078 9.21505859 17.14455078 10.34130859 17.10205078 C14.02880859 17.22705078 14.02880859 17.22705078 17.02880859 19.22705078 C18.24830978 22.88555433 18.25134218 26.29108647 18.27880859 30.10205078 C18.29943359 30.80974609 18.32005859 31.51744141 18.34130859 32.24658203 C18.36490378 35.41423627 18.04371243 38.17637774 17.14990234 41.21533203 C14.13137142 44.07821127 11.70285436 43.73955612 7.65576172 43.66650391 C6.72699219 43.62460937 5.79822266 43.58271484 4.84130859 43.53955078 C3.9009375 43.51699219 2.96056641 43.49443359 1.99169922 43.47119141 C-0.32994295 43.41226648 -2.65076738 43.32258516 -4.97119141 43.22705078 C-4.97119141 39.92705078 -4.97119141 36.62705078 -4.97119141 33.22705078 C-1.67119141 33.22705078 1.62880859 33.22705078 5.02880859 33.22705078 C5.02880859 31.24705078 5.02880859 29.26705078 5.02880859 27.22705078 C3.14162109 27.19611328 3.14162109 27.19611328 1.21630859 27.16455078 C-0.99072266 26.87548828 -0.99072266 26.87548828 -2.97119141 26.22705078 C-6.87614821 20.49164548 -6.80309604 13.79832475 -5.58447266 7.10205078 C-3.85047914 0.44351568 -3.85047914 0.44351568 0 0 Z " fill="#14496C" transform="translate(248.97119140625,292.77294921875)"/>
<path d="M0 0 C1.05960938 0.00676758 1.05960938 0.00676758 2.140625 0.01367188 C3.88545275 0.02546125 5.630237 0.04339676 7.375 0.0625 C7.375 3.3625 7.375 6.6625 7.375 10.0625 C5.395 10.3925 3.415 10.7225 1.375 11.0625 C1.375 17.9925 1.375 24.9225 1.375 32.0625 C3.685 32.3925 5.995 32.7225 8.375 33.0625 C8.375 36.3625 8.375 39.6625 8.375 43.0625 C5.60313012 43.17037818 2.83544463 43.24973327 0.0625 43.3125 C-0.72318359 43.34601563 -1.50886719 43.37953125 -2.31835938 43.4140625 C-3.07568359 43.42695313 -3.83300781 43.43984375 -4.61328125 43.453125 C-5.30977783 43.47407227 -6.00627441 43.49501953 -6.72387695 43.51660156 C-8.625 43.0625 -8.625 43.0625 -10.35302734 41.51855469 C-12.09301657 38.15880581 -12.03616394 35.06906158 -11.98828125 31.375 C-11.98877975 30.63548096 -11.98927826 29.89596191 -11.98979187 29.1340332 C-11.98745647 27.57402859 -11.97775939 26.01401984 -11.96118164 24.45410156 C-11.9375804 22.07061963 -11.94062547 19.68825671 -11.94726562 17.3046875 C-11.94168859 15.78645169 -11.93457854 14.26822057 -11.92578125 12.75 C-11.92669266 12.03948486 -11.92760406 11.32896973 -11.92854309 10.59692383 C-11.87654805 6.9558975 -11.74823206 4.09903581 -9.625 1.0625 C-6.55966836 -0.47016582 -3.35745728 -0.04026471 0 0 Z " fill="#14496C" transform="translate(147.625,292.9375)"/>
<path d="M0 0 C4.62 0 9.24 0 14 0 C13.67 10.89 13.34 21.78 13 33 C15.31 33 17.62 33 20 33 C19.67 36.3 19.34 39.6 19 43 C12.73 43 6.46 43 0 43 C0 28.81 0 14.62 0 0 Z " fill="#15496C" transform="translate(325,293)"/>
<path d="M0 0 C4.62 0 9.24 0 14 0 C13.67 10.89 13.34 21.78 13 33 C15.64 33 18.28 33 21 33 C20.85950482 34.47968324 20.71245174 35.95874516 20.5625 37.4375 C20.48128906 38.26121094 20.40007812 39.08492188 20.31640625 39.93359375 C20 42 20 42 19 43 C13.06 43 7.12 43 1 43 C0.67 28.81 0.34 14.62 0 0 Z " fill="#13496E" transform="translate(345,293)"/>
<path d="M0 0 C4.08375 -0.020625 8.1675 -0.04125 12.375 -0.0625 C13.66196777 -0.071604 14.94893555 -0.08070801 16.27490234 -0.09008789 C17.28504395 -0.09258545 18.29518555 -0.09508301 19.3359375 -0.09765625 C20.89127197 -0.10551147 20.89127197 -0.10551147 22.47802734 -0.11352539 C25 0 25 0 27 1 C27 1.66 27 2.32 27 3 C26.44731445 2.84152588 25.89462891 2.68305176 25.32519531 2.51977539 C22.77935695 1.95067733 20.40300555 1.7896572 17.796875 1.68359375 C16.32734375 1.62075195 16.32734375 1.62075195 14.828125 1.55664062 C13.81234375 1.51732422 12.7965625 1.47800781 11.75 1.4375 C10.71875 1.39431641 9.6875 1.35113281 8.625 1.30664062 C6.0834613 1.20074318 3.54182804 1.09866557 1 1 C1.350625 1.78375 1.70125 2.5675 2.0625 3.375 C2.371875 4.24125 2.68125 5.1075 3 6 C2.67 6.66 2.34 7.32 2 8 C1.95195277 9.93690416 1.96323319 11.87534888 2 13.8125 C2.08130245 23.5586308 1.52365362 33.27062716 1 43 C0.67 43 0.34 43 0 43 C0 28.81 0 14.62 0 0 Z " fill="#23475F" transform="translate(269,293)"/>
<path d="M0 0 C0.33 0 0.66 0 1 0 C1.36256858 1.4562672 1.71479793 2.91511185 2.0625 4.375 C2.35833984 5.59316406 2.35833984 5.59316406 2.66015625 6.8359375 C3 9 3 9 2 11 C2.0378086 13.80946948 2.14263803 16.57344096 2.3125 19.375 C2.34794922 20.14328125 2.38339844 20.9115625 2.41992188 21.703125 C2.68302883 27.14943279 2.68302883 27.14943279 5 32 C8.171738 33.585869 11.63513822 33.37866445 15.125 33.5625 C16.25615234 33.62727539 16.25615234 33.62727539 17.41015625 33.69335938 C19.27321888 33.7994832 21.13658524 33.90025001 23 34 C23 34.33 23 34.66 23 35 C20.26916098 35.13548815 17.54508193 35.23429855 14.8125 35.3125 C13.65911133 35.3753418 13.65911133 35.3753418 12.48242188 35.43945312 C8.17743427 35.53183483 6.52618165 35.41062804 3.01171875 32.66796875 C-0.03213773 28.63116492 -0.12077241 25.72452314 -0.09765625 20.80078125 C-0.09443359 19.59228516 -0.09121094 18.38378906 -0.08789062 17.13867188 C-0.07951172 15.87603516 -0.07113281 14.61339844 -0.0625 13.3125 C-0.05573242 11.40114258 -0.05573242 11.40114258 -0.04882812 9.45117188 C-0.03702873 6.30073436 -0.02056597 3.15039051 0 0 Z " fill="#1F4762" transform="translate(189,301)"/>
<path d="M0 0 C0.71220703 -0.02449219 1.42441406 -0.04898437 2.15820312 -0.07421875 C5.81477229 -0.09451423 7.99901551 0.26111359 11.1484375 2.1640625 C13.85950205 5.1036459 13.96152525 7.45810439 14.1875 11.375 C12.2075 10.715 10.2275 10.055 8.1875 9.375 C8.5175 7.725 8.8475 6.075 9.1875 4.375 C2.75721459 3.05111771 -3.2419834 2.12705598 -9.8125 2.375 C-6.90375462 -0.53374538 -3.89115513 0.00692993 0 0 Z " fill="#1B4764" transform="translate(202.8125,292.625)"/>
<path d="M0 0 C0.7734375 0.433125 0.7734375 0.433125 1.5625 0.875 C4.62356725 2.28780027 7.74944918 3.1248517 11 4 C11 4.66 11 5.32 11 6 C14.91402949 4.73058503 16.79072873 3.48832306 19 0 C19.99 0.33 20.98 0.66 22 1 C16.81132075 7.35613208 16.81132075 7.35613208 13 8.7109375 C9.58119769 8.99138613 7.70316636 8.52870652 4.9375 6.44921875 C3.15102942 4.70957099 1.51779738 2.97787971 0 1 C0 0.67 0 0.34 0 0 Z M14 1 C14.66 1.33 15.32 1.66 16 2 C14.35 2.66 12.7 3.32 11 4 C11.99 3.01 12.98 2.02 14 1 Z " fill="#52828F" transform="translate(239,273)"/>
<path d="M0 0 C5.43733055 4.52991796 10.46458931 9.34294216 15.4375 14.375 C16.16904297 15.11105469 16.90058594 15.84710938 17.65429688 16.60546875 C19.43852723 18.40136074 21.22036124 20.19955985 23 22 C22.34 22.33 21.68 22.66 21 23 C20.2575 22.21625 19.515 21.4325 18.75 20.625 C16.30369183 18.00147396 16.30369183 18.00147396 13.9375 17.0625 C11.01159814 15.45797317 9.8277838 12.7416757 8 10 C7.34 9.67 6.68 9.34 6 9 C2.90163505 7.45081753 1.70821253 4.92836434 0 2 C0 1.34 0 0.68 0 0 Z " fill="#1C445F" transform="translate(352,202)"/>
<path d="M0 0 C3.7278627 6.46162869 2.92307126 12.77662338 2.0625 19.875 C1.96259766 20.75414062 1.86269531 21.63328125 1.75976562 22.5390625 C1.51387175 24.69356123 1.25794435 26.84691076 1 29 C0.34 28.67 -0.32 28.34 -1 28 C-0.67 20.41 -0.34 12.82 0 5 C-0.99 4.67 -1.98 4.34 -3 4 C-2.34 4 -1.68 4 -1 4 C-0.67 2.68 -0.34 1.36 0 0 Z " fill="#1B4664" transform="translate(205,298)"/>
<path d="M0 0 C0.99 0.33 1.98 0.66 3 1 C1.54474941 2.48219967 0.085701 3.96067139 -1.375 5.4375 C-2.18710937 6.26121094 -2.99921875 7.08492187 -3.8359375 7.93359375 C-6.44936851 10.42909015 -7.33317121 10.94324861 -10.9375 11.25 C-14 11 -14 11 -15.875 9.5 C-16.24625 9.005 -16.6175 8.51 -17 8 C-14.69 8.33 -12.38 8.66 -10 9 C-10.33 7.68 -10.66 6.36 -11 5 C-8.69 5.33 -6.38 5.66 -4 6 C-4 5.34 -4 4.68 -4 4 C-3.34 4 -2.68 4 -2 4 C-2 3.34 -2 2.68 -2 2 C-1.34 2 -0.68 2 0 2 C0 1.34 0 0.68 0 0 Z " fill="#1C4764" transform="translate(261,173)"/>
<path d="M0 0 C0 3 0 3 -2 6 C-1.01 6.66 -0.02 7.32 1 8 C0.67 8.66 0.34 9.32 0 10 C-1.2375 9.7834375 -1.2375 9.7834375 -2.5 9.5625 C-7.09177668 10.13647208 -8.90358757 12.14426737 -12.16796875 15.2734375 C-14 17 -14 17 -17 19 C-15.60652624 15.84795019 -13.97514921 13.73828227 -11.5234375 11.328125 C-10.51796875 10.33232422 -10.51796875 10.33232422 -9.4921875 9.31640625 C-8.79351562 8.63449219 -8.09484375 7.95257813 -7.375 7.25 C-6.66859375 6.55261719 -5.9621875 5.85523438 -5.234375 5.13671875 C-3.49401297 3.41987512 -1.74915019 1.70788168 0 0 Z " fill="#1C4867" transform="translate(325,220)"/>
<path d="M0 0 C0.99 0.33 1.98 0.66 3 1 C-3.93 7.93 -10.86 14.86 -18 22 C-18.33 20.68 -18.66 19.36 -19 18 C-18.113125 17.443125 -17.22625 16.88625 -16.3125 16.3125 C-9.8802318 11.99433394 -5.07490726 5.78010529 0 0 Z " fill="#1D485E" transform="translate(371,257)"/>
<path d="M0 0 C3.55252464 1.52018789 5.94252306 3.61289458 8.6875 6.3125 C9.47511719 7.07175781 10.26273437 7.83101562 11.07421875 8.61328125 C13.13746533 11.17036778 13.66292097 12.77203984 14 16 C13.34 16.33 12.68 16.66 12 17 C12 15.35 12 13.7 12 12 C11.0925 12 10.185 12 9.25 12 C6 11 6 11 4.78125 9.2578125 C4.1044501 7.85806726 3.46224589 6.44095294 2.859375 5.0078125 C1.96545388 2.75041714 1.96545388 2.75041714 0 0 Z " fill="#1C4561" transform="translate(375,226)"/>
<path d="M0 0 C4.62 0 9.24 0 14 0 C13.67 0.66 13.34 1.32 13 2 C11.824375 1.9690625 11.824375 1.9690625 10.625 1.9375 C8.01885039 1.81315937 8.01885039 1.81315937 6 3 C4.68 2.34 3.36 1.68 2 1 C2 9.58 2 18.16 2 27 C1.67 27 1.34 27 1 27 C0.67 18.09 0.34 9.18 0 0 Z " fill="#19435B" transform="translate(345,293)"/>
<path d="M0 0 C1.1055189 0.93590504 2.20935453 1.87379858 3.3125 2.8125 C3.92738281 3.33457031 4.54226563 3.85664063 5.17578125 4.39453125 C6.07876953 5.18923828 6.07876953 5.18923828 7 6 C7.5775 6.495 8.155 6.99 8.75 7.5 C9.36875 8.2425 9.36875 8.2425 10 9 C9.6875 12.1875 9.6875 12.1875 9 15 C8.67 15 8.34 15 8 15 C7.34 12.69 6.68 10.38 6 8 C5.05125 8.04125 4.1025 8.0825 3.125 8.125 C0 8 0 8 -2 6 C-1 4 -1 4 0 3 C0 2.01 0 1.02 0 0 Z " fill="#50828E" transform="translate(282,229)"/>
<path d="M0 0 C0.66 0.99 1.32 1.98 2 3 C1.01 3.66 0.02 4.32 -1 5 C-1.33 5.66 -1.66 6.32 -2 7 C-2.33 6.01 -2.66 5.02 -3 4 C-5.12939828 2.64973223 -5.12939828 2.64973223 -8.125 3.9375 C-9.548125 4.4634375 -9.548125 4.4634375 -11 5 C-5.8125 -1.74375 -5.8125 -1.74375 0 0 Z " fill="#194765" transform="translate(303,249)"/>
<path d="M0 0 C0.33 0.99 0.66 1.98 1 3 C0.34 3 -0.32 3 -1 3 C-1 3.66 -1 4.32 -1 5 C-4.6854506 9.02049157 -8.82556637 12.49925018 -13 16 C-13.66 15.67 -14.32 15.34 -15 15 C-10.05 10.05 -5.1 5.1 0 0 Z " fill="#1F4C69" transform="translate(288,257)"/>
<path d="M0 0 C0.33 1.32 0.66 2.64 1 4 C0.13375 4.515625 -0.7325 5.03125 -1.625 5.5625 C-5.46201739 8.09310433 -8.16675882 11.42328418 -11 15 C-11.99 14.67 -12.98 14.34 -14 14 C-9.38 9.38 -4.76 4.76 0 0 Z " fill="#1B4660" transform="translate(174,272)"/>
<path d="M0 0 C0.33 0 0.66 0 1 0 C1.12117187 1.07121094 1.24234375 2.14242188 1.3671875 3.24609375 C1.53597601 4.64328752 1.70527313 6.04041991 1.875 7.4375 C1.95363281 8.14455078 2.03226563 8.85160156 2.11328125 9.58007812 C2.33927676 11.39673432 2.66300727 13.20062522 3 15 C3.66 15.33 4.32 15.66 5 16 C5 16.99 5 17.98 5 19 C3.0625 18.1875 3.0625 18.1875 1 17 C-0.18681726 13.43954823 -0.09689832 10.56191663 -0.0625 6.8125 C-0.05347656 5.54019531 -0.04445312 4.26789063 -0.03515625 2.95703125 C-0.02355469 1.98121094 -0.01195312 1.00539063 0 0 Z " fill="#224761" transform="translate(219,300)"/>
<path d="M0 0 C0.99 0.66 1.98 1.32 3 2 C-1.62 6.62 -6.24 11.24 -11 16 C-11 13 -11 13 -8.8125 10.6875 C-7.884375 9.800625 -6.95625 8.91375 -6 8 C-2.63779797 4.25596079 -2.63779797 4.25596079 0 0 Z " fill="#528089" transform="translate(274,256)"/>
<path d="M0 0 C4.59148936 3.2964539 4.59148936 3.2964539 6.125 5.9375 C6 8 6 8 3.5625 10.75 C2.2940625 11.86375 2.2940625 11.86375 1 13 C0.67 12.01 0.34 11.02 0 10 C1.32 9.67 2.64 9.34 4 9 C3.67 8.01 3.34 7.02 3 6 C2.01 6 1.02 6 0 6 C0.66 5.67 1.32 5.34 2 5 C1.34 3.35 0.68 1.7 0 0 Z " fill="#1C4662" transform="translate(187,233)"/>
<path d="M0 0 C4.88049925 3.9419417 9.0580583 8.11950075 13 13 C12.01 13 11.02 13 10 13 C8.65080468 11.34614767 7.31866272 9.678298 6 8 C4.948125 7.5359375 4.948125 7.5359375 3.875 7.0625 C2 6 2 6 0.75 2.875 C0.5025 1.92625 0.255 0.9775 0 0 Z " fill="#507E8A" transform="translate(266,213)"/>
<path d="M0 0 C1.14926266 0.95421808 2.29430541 1.91352045 3.4375 2.875 C4.07558594 3.40867187 4.71367187 3.94234375 5.37109375 4.4921875 C7 6 7 6 8 8 C6.02 7.34 4.04 6.68 2 6 C1.34 6.66 0.68 7.32 0 8 C-0.38063221 5.6739143 -0.71269945 3.33944736 -1 1 C-0.67 0.67 -0.34 0.34 0 0 Z " fill="#154564" transform="translate(321,268)"/>
<path d="M0 0 C0 0.99 0 1.98 0 3 C-0.66 3.66 -1.32 4.32 -2 5 C-2.64767793 7.57061311 -2.64767793 7.57061311 -3 10 C-5.31 10.33 -7.62 10.66 -10 11 C-6.79239749 7.19364503 -3.59253891 3.45436433 0 0 Z " fill="#55868F" transform="translate(233,213)"/>
<path d="M0 0 C0.33 0 0.66 0 1 0 C1.30272104 6.35714175 1.10501038 12.27553642 -2 18 C-2.99 18.33 -3.98 18.66 -5 19 C-5 18.01 -5 17.02 -5 16 C-4.52949219 15.58105469 -4.05898437 15.16210938 -3.57421875 14.73046875 C-1.24281884 12.16766438 -1.24875227 9.70184459 -0.8125 6.3125 C-0.65394531 5.13300781 -0.49539062 3.95351563 -0.33203125 2.73828125 C-0.22246094 1.83464844 -0.11289063 0.93101562 0 0 Z " fill="#1C465E" transform="translate(217,316)"/>
<path d="M0 0 C0.99 0.33 1.98 0.66 3 1 C4.25433458 4.76300374 4.10695422 8.27210909 4.0625 12.1875 C4.05798828 12.93708984 4.05347656 13.68667969 4.04882812 14.45898438 C4.03706354 16.30602383 4.01912865 18.15302213 4 20 C3.67 20 3.34 20 3 20 C2.95101563 19.2265625 2.90203125 18.453125 2.8515625 17.65625 C2.41252377 11.53998633 1.69992464 5.89307209 0 0 Z " fill="#24465D" transform="translate(263,311)"/>
<path d="M0 0 C0.33 1.32 0.66 2.64 1 4 C3.64 4 6.28 4 9 4 C8.67 6.97 8.34 9.94 8 13 C7.67 13 7.34 13 7 13 C7 10.69 7 8.38 7 6 C5.865625 5.87625 4.73125 5.7525 3.5625 5.625 C2.386875 5.41875 1.21125 5.2125 0 5 C-0.33 4.34 -0.66 3.68 -1 3 C-0.67 2.01 -0.34 1.02 0 0 Z " fill="#1C435B" transform="translate(357,322)"/>
<path d="M0 0 C1.32 0 2.64 0 4 0 C5.05589069 1.63183107 6.0436126 3.30792999 7 5 C8.91574503 7.10288722 10.94114575 9.03265038 13 11 C12.67 11.66 12.34 12.32 12 13 C9.99698146 11.0238076 7.99750133 9.04425526 6 7.0625 C5.42765625 6.49853516 4.8553125 5.93457031 4.265625 5.35351562 C2.82474495 3.92121224 1.41012857 2.46258871 0 1 C0 0.67 0 0.34 0 0 Z " fill="#1E4964" transform="translate(225,162)"/>
<path d="M0 0 C3.32754368 -0.58232014 5.34486109 -0.43675927 8.1796875 1.453125 C10.27318284 3.22626341 12.22982931 4.90185352 14 7 C14 7.99 14 8.98 14 10 C9.20123203 7.47433265 9.20123203 7.47433265 8.125 4.9375 C7.03210362 2.56905939 7.03210362 2.56905939 3.375 1.75 C1.704375 1.37875 1.704375 1.37875 0 1 C0 0.67 0 0.34 0 0 Z " fill="#1E4861" transform="translate(247,102)"/>
<path d="M0 0 C0.33 1.32 0.66 2.64 1 4 C1.66 4 2.32 4 3 4 C2.67 5.98 2.34 7.96 2 10 C-0.0625 8.3125 -0.0625 8.3125 -2 6 C-1.7 1.7 -1.7 1.7 0 0 Z " fill="#558693" transform="translate(210,236)"/>
<path d="M0 0 C1.12894876 0.93274109 2.25300876 1.87140122 3.375 2.8125 C4.00148438 3.33457031 4.62796875 3.85664063 5.2734375 4.39453125 C7 6 7 6 9 9 C6.75 8.875 6.75 8.875 4 8 C0 2.91891892 0 2.91891892 0 0 Z " fill="#4A828F" transform="translate(257,204)"/>
<path d="M0 0 C1.12894876 0.93274109 2.25300876 1.87140122 3.375 2.8125 C4.00148437 3.33457031 4.62796875 3.85664063 5.2734375 4.39453125 C7 6 7 6 9 9 C8.443125 8.71125 7.88625 8.4225 7.3125 8.125 C4.91505355 6.9586747 2.48403061 5.9660119 0 5 C0 3.35 0 1.7 0 0 Z " fill="#1F4B68" transform="translate(208,254)"/>
<path d="M0 0 C0.99 0.33 1.98 0.66 3 1 C3.33 2.65 3.66 4.3 4 6 C4.99 6.33 5.98 6.66 7 7 C6.67 7.99 6.34 8.98 6 10 C3.69 7.36 1.38 4.72 -1 2 C-0.67 1.34 -0.34 0.68 0 0 Z " fill="#1A4663" transform="translate(114,242)"/>
<path d="M0 0 C0.33 0 0.66 0 1 0 C1.04898437 0.74765625 1.09796875 1.4953125 1.1484375 2.265625 C1.22320312 3.25046875 1.29796875 4.2353125 1.375 5.25 C1.44460938 6.22453125 1.51421875 7.1990625 1.5859375 8.203125 C1.98910348 10.92639708 2.52789508 12.69123113 4 15 C4.66 15.33 5.32 15.66 6 16 C4.125 15.6875 4.125 15.6875 2 15 C-0.35119399 11.47320901 -0.21443452 9.97120515 -0.125 5.8125 C-0.10695313 4.72582031 -0.08890625 3.63914062 -0.0703125 2.51953125 C-0.04710937 1.68808594 -0.02390625 0.85664063 0 0 Z " fill="#1E4760" transform="translate(300,320)"/>
<path d="M0 0 C0.66 0 1.32 0 2 0 C1.67 3.3 1.34 6.6 1 10 C0.34 10 -0.32 10 -1 10 C-0.67 6.7 -0.34 3.4 0 0 Z " fill="#20455F" transform="translate(343,326)"/>
<path d="M0 0 C1.32 0.33 2.64 0.66 4 1 C4 1.66 4 2.32 4 3 C7.465 2.505 7.465 2.505 11 2 C10.01 3.485 10.01 3.485 9 5 C3.46153846 4.50769231 3.46153846 4.50769231 1.125 1.9375 C0.75375 1.298125 0.3825 0.65875 0 0 Z " fill="#1E4A61" transform="translate(145,276)"/>
<path d="M0 0 C0.33 0.99 0.66 1.98 1 3 C-1.5958956 5.87402727 -3.21369298 7.24432948 -7 8 C-6.02133662 6.85373678 -5.04205413 5.70800212 -4.0625 4.5625 C-3.51722656 3.92441406 -2.97195312 3.28632813 -2.41015625 2.62890625 C-1.63204305 1.73008851 -0.84063472 0.84063472 0 0 Z " fill="#55858F" transform="translate(222,224)"/>
<path d="M0 0 C2.31 1.98 4.62 3.96 7 6 C6.01 6.66 5.02 7.32 4 8 C4 7.01 4 6.02 4 5 C2.68 5.33 1.36 5.66 0 6 C0 4.02 0 2.04 0 0 Z " fill="#1C4763" transform="translate(168,214)"/>
<path d="M0 0 C0.33 1.32 0.66 2.64 1 4 C-0.98 5.32 -2.96 6.64 -5 8 C-5.66 7.67 -6.32 7.34 -7 7 C-4.69 4.69 -2.38 2.38 0 0 Z " fill="#194667" transform="translate(187,259)"/>
<path d="M0 0 C2.97 0.495 2.97 0.495 6 1 C6.33 2.98 6.66 4.96 7 7 C5.83040013 6.02433888 4.66438823 5.044375 3.5 4.0625 C2.8503125 3.51722656 2.200625 2.97195312 1.53125 2.41015625 C1.0259375 1.94480469 0.520625 1.47945312 0 1 C0 0.67 0 0.34 0 0 Z " fill="#1C4966" transform="translate(209,146)"/>
<path d="M0 0 C0 3 0 3 -1 6 C-4.0625 7.1875 -4.0625 7.1875 -7 8 C-6.02133662 6.85373678 -5.04205413 5.70800212 -4.0625 4.5625 C-3.51722656 3.92441406 -2.97195312 3.28632813 -2.41015625 2.62890625 C-1.63204305 1.73008851 -0.84063472 0.84063472 0 0 Z " fill="#19405B" transform="translate(127,222)"/>
<path d="M0 0 C0 3 0 3 -1 6 C-4.0625 7.1875 -4.0625 7.1875 -7 8 C-6.02133662 6.85373678 -5.04205413 5.70800212 -4.0625 4.5625 C-3.51722656 3.92441406 -2.97195312 3.28632813 -2.41015625 2.62890625 C-1.63204305 1.73008851 -0.84063472 0.84063472 0 0 Z " fill="#19415B" transform="translate(143,206)"/>
</svg>
