<?xml version="1.0" encoding="UTF-8"?><svg id="b" xmlns="http://www.w3.org/2000/svg" viewBox="0 0 143.73 143.74"><g id="c"><g><rect x="3" y="3" width="137.73" height="137.74" style="fill:none; stroke:#121212; stroke-miterlimit:10; stroke-width:6px;"/><path d="M69.16,96c0,11.94-8.7,20.63-20.46,20.63s-20.68-8.69-20.68-20.63,8.69-20.51,20.63-20.51,20.51,8.69,20.51,20.51Z"/><path d="M115.95,96.59v14.43c-3.58,3.46-9.48,5.68-15.91,5.68-13.47,0-22.04-7.84-22.04-19.95s9.49-21.18,22.83-21.18v21.02h15.12Z"/><polygon points="115.95 53.51 115.95 67.95 78 67.95 78 27.19 101.03 27.19 101.03 53.51 115.95 53.51"/><polygon points="27.78 68.08 39.93 45.45 28.28 27.03 68.91 27.03 57.26 45.45 69.4 68.08 27.78 68.08"/></g></g></svg>