<svg xmlns="http://www.w3.org/2000/svg" viewBox="0 0 1024 1024">
  <g id="Layer_2" data-name="Layer 2">
    <g id="bg">
      <rect width="1024" height="1024" fill="#0072ff" />
    </g>
    <g id="Layer_1-2" data-name="Layer 1">
      <g id="Layer_2-2" data-name="Layer 2">
        <g id="图层_1" data-name="图层 1">
          <path
            d="M655.79,528.1c-10-14.91-34.25-22.84-51.57-27.52-2-.53-4.12-1.06-6.36-1.62h-.17c-9.33-2.36-19.93-5-28.17-9.44-9.45-5.18-14.07-11.88-14.07-20.5a20.82,20.82,0,0,1,.39-4.17v-.25a17.3,17.3,0,0,1,.49-1.88,2.41,2.41,0,0,1,.08-.25v-.09a24,24,0,0,1,6-9.45c7-7.08,18.17-11.06,30.7-11.06h.39a66,66,0,0,1,26.66,6.27,71.68,71.68,0,0,1,22.21,15.75l.15,18V482h15.59V428H642.54v12.25a.54.54,0,0,1-.25.45.7.7,0,0,1-.43-.19,79.69,79.69,0,0,0-21.71-11.7,83.89,83.89,0,0,0-26-4.51c-10.15,0-18.44,1.18-25.36,3.44a48.58,48.58,0,0,0-15.76,8.77,41.19,41.19,0,0,0-11.89,14.87,42.25,42.25,0,0,0-4.09,17.92,37.68,37.68,0,0,0,1.36,10.88,40.78,40.78,0,0,0,5.31,11c.2.32.44.62.65.93s.23.3.33.45l.14.19c10.22,14.11,33,20.36,49.66,24.95l.46.12,3.7,1,4,1.07a163.1,163.1,0,0,1,25.37,8.46,29.78,29.78,0,0,1,11,8.37,25.89,25.89,0,0,1,5.42,11.61,25.29,25.29,0,0,1-.93,12.71,32.25,32.25,0,0,1-7.9,12.46,37.91,37.91,0,0,1-13.48,7.73,56.74,56.74,0,0,1-15,2.68,75.79,75.79,0,0,1-24.11-2.73c-13.29-4.2-25.42-12.32-33.28-22.23a3.23,3.23,0,0,1-.58-1.08l-.15-15.45v-.2H533.54v56.54h15.6V582.24a68,68,0,0,0,22.25,13.06A92.46,92.46,0,0,0,601.23,601h1.26c8.66,0,28.91,0,44.79-13.45A46.31,46.31,0,0,0,658,574a47.42,47.42,0,0,0,5-15.9,44.12,44.12,0,0,0-.73-16A36.57,36.57,0,0,0,655.79,528.1Z"
            fill="#fff"
          />
          <path
            d="M501.87,528.1c-9.84-14.84-34.14-22.81-51.57-27.51-2-.52-4-1-6.23-1.57-18.89-4.66-42.41-10.48-42.69-30a20.83,20.83,0,0,1,1.84-8.55,25.4,25.4,0,0,1,5.33-7.56c7.09-7,18.2-11,30.64-11h.39a65.77,65.77,0,0,1,26.62,6.27,70.8,70.8,0,0,1,22.09,15.76l.3,18v.2h15.59V428H488.63v12.25a.54.54,0,0,1-.24.45.5.5,0,0,1-.43-.19,79.89,79.89,0,0,0-21.72-11.7,83.89,83.89,0,0,0-26-4.51c-10.2,0-18.52,1.18-25.41,3.44a48.53,48.53,0,0,0-15.71,8.77,41.19,41.19,0,0,0-11.89,14.87,42.31,42.31,0,0,0-4.11,18,38.22,38.22,0,0,0,1.33,10.86,41.42,41.42,0,0,0,5.18,11c9.79,15.25,33.74,21.81,51.22,26.6l.42.11,3.47,1,3.66,1,.34.09a163.1,163.1,0,0,1,25.37,8.46,30.44,30.44,0,0,1,11.1,8.43,26.23,26.23,0,0,1,5.44,11.71,25.26,25.26,0,0,1-1,12.73,32,32,0,0,1-7.94,12.44,37.05,37.05,0,0,1-13.42,7.66,55.69,55.69,0,0,1-15,2.62c-1.05,0-2.15.07-3.26.07A76.86,76.86,0,0,1,429,581.15c-.79-.24-1.59-.52-2.36-.8h-.12c-1.59-.57-3.19-1.18-4.72-1.9A71.34,71.34,0,0,1,401,564.53l-.31-.3c-.94-.94-1.9-2-2.82-3l-.71-.81c-.41-.49-.81-1-1.18-1.46a3.35,3.35,0,0,1-.57-1.07l-.15-15.45v-.2H379.47v56.54h15.75V582.25a67.79,67.79,0,0,0,22.25,13.06A92.46,92.46,0,0,0,447.31,601h1.26c8.61,0,28.77,0,44.8-13.45A46.44,46.44,0,0,0,504.1,574a47.32,47.32,0,0,0,5-15.8,44.18,44.18,0,0,0-.73-16A36.91,36.91,0,0,0,501.87,528.1Z"
            fill="#fff"
          />
          <path
            d="M342,585.33l-42.61-64.41a46.93,46.93,0,0,0,21-4.08c9.32-4.72,16.81-10.71,21.4-19.57a51.54,51.54,0,0,0,5.65-23.61,49.16,49.16,0,0,0-14.17-34.5c-9.85-8.93-22.15-13.27-37.6-13.27H213.09v17.82h17.52V585.55H211.55v14.9h55.33v-14.9H249.06V521.18h29.82l41.74,64.37h-19v14.9H361.2v-14.9H342.58A.79.79,0,0,1,342,585.33ZM249.06,442.91h45.67c14,0,24.79,5.57,30.25,15.15a31.66,31.66,0,0,1-.5,31.25c-5.59,9.45-12.21,14.67-26.87,14.67H249.06Z"
            fill="#fff"
          />
          <path
            d="M805.27,548.83c0-21.38-10.81-36.83-28.74-43.45,15.2-8,21.91-21.12,21.91-34.64,0-31.21-26.18-47.74-60.32-47.74-18.64.14-38.5,6.34-52.07,25.38l14.17,9.25c7.6-10.21,18.41-18.1,37.9-18.1,24.8,0,42.39,10.07,42.39,29.25,0,18.37-17.64,28.61-35.71,28.61H720.19v17.72h26c23,0,41.25,12.41,40.68,33.52-1.28,22.44-21,34.5-46.94,34.5-16.65,0-35.14-5.25-49-20l-.7-.27-12.1,13.24.57.14c17.36,16.28,38,24.7,61.18,24.7C775.68,600.86,805.27,581.54,805.27,548.83Z"
            fill="#fff"
          />
          <rect
            x="155.23"
            y="503.86"
            width="44.85"
            height="18.32"
            fill="#fff"
          />
          <rect
            x="823.92"
            y="503.86"
            width="44.85"
            height="18.32"
            fill="#fff"
          />
        </g>
      </g>
    </g>
  </g>
</svg>