<svg xmlns="http://www.w3.org/2000/svg" width="374" height="374" fill="none" viewBox="0 0 374 374"><path fill="#FFCF55" d="M301.444 170.993C301.444 170.993 318.588 172.691 327.272 183.32C327.272 183.32 336.458 171.008 352.944 171.262C356.973 166.402 359.538 160.497 360.341 154.235C361.144 147.974 360.152 141.612 357.48 135.893C354.808 130.173 350.566 125.33 345.249 121.927C339.931 118.525 333.756 116.703 327.443 116.673C321.13 116.644 314.939 118.408 309.59 121.761C304.24 125.114 299.954 129.918 297.229 135.613C294.504 141.307 293.453 147.659 294.198 153.928C294.942 160.197 297.453 166.125 301.436 171.023L301.444 170.993Z"/><path fill="#fff" d="M301.444 170.993C301.444 170.993 318.588 172.691 327.272 183.32C327.272 183.32 336.458 171.008 352.944 171.262C356.973 166.402 359.538 160.497 360.341 154.235C361.144 147.974 360.152 141.612 357.48 135.893C354.808 130.173 350.566 125.33 345.249 121.927C339.931 118.525 333.756 116.703 327.443 116.673C321.13 116.644 314.939 118.408 309.59 121.761C304.24 125.114 299.954 129.918 297.229 135.613C294.504 141.307 293.453 147.659 294.198 153.928C294.942 160.197 297.453 166.125 301.436 171.023L301.444 170.993Z" opacity=".5"/><path fill="#B8B8B8" d="M326.695 119.022L326.119 230.13H329.014L326.695 119.022Z"/><path fill="#B8B8B8" d="M327.571 180.082C327.571 180.082 333.353 169.662 343.772 166.476C343.772 166.476 332.777 169.086 327.316 178.055L327.571 180.082Z"/><path fill="#B8B8B8" d="M327.571 150.565C327.571 150.565 333.353 140.145 343.772 136.959C343.772 136.959 332.777 139.562 327.316 148.538L327.571 150.565Z"/><path fill="#B8B8B8" d="M327.571 165.308C327.571 165.308 333.353 154.889 343.772 151.702C343.772 151.702 332.777 154.313 327.316 163.281L327.571 165.308Z"/><path fill="#B8B8B8" d="M326.711 158.083C326.711 158.083 321.123 147.671 311.07 144.484C311.07 144.484 321.684 147.087 326.988 156.063L326.711 158.083Z"/><path fill="#B8B8B8" d="M326.711 172.557C326.711 172.557 321.123 162.137 311.07 158.958C311.07 158.958 321.684 161.561 326.988 170.53L326.711 172.557Z"/><path fill="#FFCF55" d="M20.8462 170.993C20.8462 170.993 37.9903 172.691 46.6746 183.32C46.6746 183.32 55.8601 171.008 72.346 171.262C76.3748 166.402 78.9402 160.497 79.7433 154.235C80.5464 147.974 79.5542 141.612 76.8823 135.893C74.2104 130.173 69.9686 125.33 64.651 121.927C59.3333 118.525 53.1585 116.703 46.8455 116.673C40.5324 116.644 34.3409 118.408 28.9919 121.761C23.6428 125.114 19.3563 129.918 16.6313 135.613C13.9063 141.307 12.8551 147.659 13.6 153.928C14.3448 160.197 16.8552 166.125 20.8387 171.023L20.8462 170.993Z"/><path fill="#fff" d="M20.8462 170.993C20.8462 170.993 37.9903 172.691 46.6746 183.32C46.6746 183.32 55.8601 171.008 72.346 171.262C76.3748 166.402 78.9402 160.497 79.7433 154.235C80.5464 147.974 79.5542 141.612 76.8823 135.893C74.2104 130.173 69.9686 125.33 64.651 121.927C59.3333 118.525 53.1585 116.703 46.8455 116.673C40.5324 116.644 34.3409 118.408 28.9919 121.761C23.6428 125.114 19.3563 129.918 16.6313 135.613C13.9063 141.307 12.8551 147.659 13.6 153.928C14.3448 160.197 16.8552 166.125 20.8387 171.023L20.8462 170.993Z" opacity=".5"/><path fill="#B8B8B8" d="M46.1127 119.022L45.5293 230.13H48.4241L46.1127 119.022Z"/><path fill="#B8B8B8" d="M46.9809 180.082C46.9809 180.082 52.7629 169.662 63.1826 166.476C63.1826 166.476 52.187 169.086 46.7266 178.055L46.9809 180.082Z"/><path fill="#B8B8B8" d="M46.9809 150.565C46.9809 150.565 52.7629 140.145 63.1826 136.959C63.1826 136.959 52.187 139.562 46.7266 148.538L46.9809 150.565Z"/><path fill="#B8B8B8" d="M46.9809 165.308C46.9809 165.308 52.7629 154.889 63.1826 151.702C63.1826 151.702 52.187 154.313 46.7266 163.281L46.9809 165.308Z"/><path fill="#B8B8B8" d="M46.1211 158.083C46.1211 158.083 40.5336 147.671 30.4805 144.484C30.4805 144.484 41.0946 147.087 46.3979 156.063L46.1211 158.083Z"/><path fill="#B8B8B8" d="M46.1211 172.557C46.1211 172.557 40.5336 162.137 30.4805 158.958C30.4805 158.958 41.0946 161.561 46.3979 170.53L46.1211 172.557Z"/><path fill="#FFCF55" d="M231.782 181.764C231.782 181.764 245.815 183.148 252.921 191.847C252.921 191.847 260.438 181.772 273.932 181.974C277.228 177.995 279.326 173.162 279.982 168.037C280.638 162.913 279.824 157.707 277.636 153.027C275.449 148.347 271.976 144.384 267.624 141.6C263.271 138.817 258.218 137.327 253.051 137.304C247.885 137.281 242.818 138.726 238.441 141.471C234.064 144.216 230.557 148.147 228.328 152.808C226.098 157.469 225.239 162.667 225.849 167.797C226.459 172.928 228.514 177.779 231.775 181.787L231.782 181.764Z"/><path fill="#fff" d="M231.782 181.764C231.782 181.764 245.815 183.148 252.921 191.847C252.921 191.847 260.438 181.772 273.932 181.974C277.228 177.995 279.326 173.162 279.982 168.037C280.638 162.913 279.824 157.707 277.636 153.027C275.449 148.347 271.976 144.384 267.624 141.6C263.271 138.817 258.218 137.327 253.051 137.304C247.885 137.281 242.818 138.726 238.441 141.471C234.064 144.216 230.557 148.147 228.328 152.808C226.098 157.469 225.239 162.667 225.849 167.797C226.459 172.928 228.514 177.779 231.775 181.787L231.782 181.764Z" opacity=".5"/><path fill="#B8B8B8" d="M252.458 139.188L251.986 230.13H254.357L252.458 139.188Z"/><path fill="#B8B8B8" d="M253.167 189.17C253.167 189.17 257.909 180.643 266.429 178.032C266.429 178.032 257.453 180.164 252.965 187.509L253.167 189.17Z"/><path fill="#B8B8B8" d="M253.167 165.009C253.167 165.009 257.909 156.482 266.429 153.879C266.429 153.879 257.453 156.011 252.965 163.349L253.167 165.009Z"/><path fill="#B8B8B8" d="M253.167 177.089C253.167 177.089 257.909 168.562 266.429 165.951C266.429 165.951 257.453 168.083 252.965 175.428L253.167 177.089Z"/><path fill="#B8B8B8" d="M252.464 171.165C252.464 171.165 247.894 162.638 239.666 160.035C239.666 160.035 248.35 162.167 252.696 169.505L252.464 171.165Z"/><path fill="#B8B8B8" d="M252.464 183.006C252.464 183.006 247.894 174.479 239.666 171.876C239.666 171.876 248.35 174.008 252.696 181.353L252.464 183.006Z"/><path fill="#FFCF55" d="M96.0129 181.764C96.0129 181.764 110.045 183.148 117.151 191.847C117.151 191.847 124.631 181.772 138.163 181.974C141.459 177.995 143.556 173.162 144.212 168.037C144.868 162.913 144.055 157.707 141.867 153.027C139.679 148.347 136.207 144.384 131.854 141.6C127.502 138.817 122.448 137.327 117.282 137.304C112.115 137.281 107.049 138.726 102.672 141.471C98.2947 144.216 94.7874 148.147 92.5581 152.808C90.3289 157.469 89.4693 162.667 90.0796 167.797C90.6899 172.928 92.7449 177.779 96.0054 181.787L96.0129 181.764Z"/><path fill="#fff" d="M96.0129 181.764C96.0129 181.764 110.045 183.148 117.151 191.847C117.151 191.847 124.631 181.772 138.163 181.974C141.459 177.995 143.556 173.162 144.212 168.037C144.868 162.913 144.055 157.707 141.867 153.027C139.679 148.347 136.207 144.384 131.854 141.6C127.502 138.817 122.448 137.327 117.282 137.304C112.115 137.281 107.049 138.726 102.672 141.471C98.2947 144.216 94.7874 148.147 92.5581 152.808C90.3289 157.469 89.4693 162.667 90.0796 167.797C90.6899 172.928 92.7449 177.779 96.0054 181.787L96.0129 181.764Z" opacity=".5"/><path fill="#B8B8B8" d="M116.688 139.188L116.217 230.13H118.588L116.688 139.188Z"/><path fill="#B8B8B8" d="M117.436 189.17C117.436 189.17 122.179 180.643 130.698 178.032C130.698 178.032 121.722 180.164 117.234 187.509L117.436 189.17Z"/><path fill="#B8B8B8" d="M117.436 165.009C117.436 165.009 122.179 156.482 130.698 153.879C130.698 153.879 121.722 156.011 117.234 163.349L117.436 165.009Z"/><path fill="#B8B8B8" d="M117.436 177.089C117.436 177.089 122.179 168.562 130.698 165.951C130.698 165.951 121.722 168.083 117.234 175.428L117.436 177.089Z"/><path fill="#B8B8B8" d="M116.687 171.165C116.687 171.165 112.124 162.638 103.896 160.072C103.896 160.072 112.581 162.204 116.927 169.542L116.687 171.165Z"/><path fill="#B8B8B8" d="M116.687 183.006C116.687 183.006 112.117 174.479 103.889 171.876C103.889 171.876 112.573 174.008 116.919 181.353L116.687 183.006Z"/><path stroke="#263238" stroke-miterlimit="10" stroke-width="1.047" d="M26.0078 230.526H348.8"/><path fill="#263238" d="M141.006 90.2982C141.006 84.5161 144.058 81.21 149.63 81.21C155.203 81.21 158.262 84.5161 158.262 90.2982V109.103C158.262 114.885 155.21 118.191 149.63 118.191C144.05 118.191 141.006 114.885 141.006 109.103V90.2982ZM146.691 109.462C146.691 112.043 147.828 113.022 149.63 113.022C151.433 113.022 152.577 112.043 152.577 109.462V89.9391C152.577 87.3585 151.44 86.3786 149.63 86.3786C147.82 86.3786 146.691 87.3585 146.691 89.9391V109.462Z"/><path fill="#263238" d="M162.547 90.2982C162.547 84.5161 165.591 81.21 171.171 81.21C176.751 81.21 179.796 84.5161 179.796 90.2982V109.103C179.796 114.885 176.744 118.191 171.171 118.191C165.599 118.191 162.547 114.885 162.547 109.103V90.2982ZM168.224 109.462C168.224 112.043 169.361 113.022 171.171 113.022C172.981 113.022 174.111 112.043 174.111 109.462V89.9391C174.111 87.3585 172.974 86.3786 171.171 86.3786C169.369 86.3786 168.224 87.3585 168.224 89.9391V109.462Z"/><path fill="#263238" d="M201.384 90.56V95.2575C201.384 101.047 198.594 104.233 192.917 104.233H190.232V117.817H184.547V81.6289H192.917C198.594 81.6289 201.384 84.778 201.384 90.56ZM190.232 86.82V99.0573H192.917C194.72 99.0573 195.7 98.2345 195.7 95.6539V90.2309C195.7 87.6428 194.72 86.82 192.917 86.82H190.232Z"/><path fill="#263238" d="M213.008 81.21C218.528 81.21 221.37 84.5161 221.37 90.2982V91.4351H216V89.9391C216 87.3585 214.967 86.3786 213.157 86.3786C211.347 86.3786 210.315 87.3585 210.315 89.9391C210.315 97.3742 221.423 98.773 221.423 109.103C221.423 114.885 218.528 118.191 212.955 118.191C207.383 118.191 204.48 114.885 204.48 109.103V106.859H209.851V109.439C209.851 112.02 210.988 112.955 212.798 112.955C214.608 112.955 215.738 112.02 215.738 109.439C215.738 102.004 204.638 100.606 204.638 90.2757C204.638 84.5236 207.48 81.21 213.008 81.21Z"/><path fill="#263238" d="M226.486 109.769L225.738 96.7086V81.6289H231.423V96.7086L230.675 109.769H226.486ZM231.341 112.304V117.78H225.895V112.304H231.341Z"/><path fill="#263238" d="M128.746 308.303C131.408 308.303 132.545 309.881 132.545 312.447V314.481C132.545 317.167 131.289 318.573 128.603 318.573H126.928V325.252H125.043V308.303H128.746ZM128.603 316.875C130.002 316.875 130.683 316.224 130.683 314.631V312.387C130.683 310.838 130.122 310.061 128.746 310.061H126.928V316.912L128.603 316.875Z"/><path fill="#263238" d="M136.18 321.834L135.522 325.252H133.779L137.026 308.303H139.763L143.01 325.252H141.117L140.466 321.834H136.18ZM136.42 320.218H140.197L138.282 310.42L136.42 320.218Z"/><path fill="#263238" d="M152.45 312.395V313.846H150.655V312.298C150.655 310.802 150.049 309.859 148.673 309.859C147.296 309.859 146.69 310.772 146.69 312.298V321.274C146.69 322.77 147.319 323.72 148.673 323.72C150.026 323.72 150.655 322.799 150.655 321.274V317.9H148.912V316.202H152.45V321.191C152.45 323.757 151.238 325.447 148.628 325.447C146.017 325.447 144.82 323.757 144.82 321.191V312.395C144.82 309.829 146.032 308.139 148.628 308.139C151.223 308.139 152.45 309.829 152.45 312.395Z"/><path fill="#263238" d="M160.752 315.813V317.503H156.615V323.532H161.694V325.252H154.723V308.303H161.694V310.023H156.615V315.813H160.752Z"/><path fill="#263238" d="M169.833 325.252H168.143V308.303H170.544L174.463 320.555V308.303H176.139V325.252H174.171L169.841 311.549L169.833 325.252Z"/><path fill="#263238" d="M178.406 312.395C178.406 309.807 179.685 308.139 182.281 308.139C184.876 308.139 186.178 309.807 186.178 312.395V321.161C186.178 323.727 184.891 325.417 182.281 325.417C179.67 325.417 178.406 323.727 178.406 321.161V312.395ZM180.269 321.259C180.269 322.807 180.927 323.705 182.281 323.705C183.635 323.705 184.286 322.807 184.286 321.259V312.283C184.286 310.787 183.657 309.844 182.281 309.844C180.905 309.844 180.269 310.757 180.269 312.283V321.259Z"/><path fill="#263238" d="M190.92 325.252V310.023H187.801V308.303H195.932V310.023H192.812V325.252H190.92Z"/><path fill="#263238" d="M207.748 316.194V317.9H203.851V325.237H201.959V308.303H208.691V310.023H203.851V316.194H207.748Z"/><path fill="#263238" d="M210.531 312.395C210.531 309.807 211.818 308.139 214.406 308.139C216.994 308.139 218.303 309.807 218.303 312.395V321.161C218.303 323.727 217.024 325.417 214.406 325.417C211.788 325.417 210.531 323.727 210.531 321.161V312.395ZM212.401 321.259C212.401 322.807 213.052 323.705 214.406 323.705C215.76 323.705 216.418 322.807 216.418 321.259V312.283C216.418 310.787 215.79 309.844 214.406 309.844C213.022 309.844 212.401 310.757 212.401 312.283V321.259Z"/><path fill="#263238" d="M222.372 321.258C222.372 322.754 222.978 323.704 224.354 323.704C225.731 323.704 226.322 322.784 226.322 321.258V308.303H228.087V321.161C228.087 323.726 226.898 325.447 224.287 325.447C221.677 325.447 220.51 323.726 220.51 321.161V308.303H222.372V321.258Z"/><path fill="#263238" d="M232.105 325.252H230.385V308.303H232.778L236.698 320.555V308.303H238.373V325.252H236.444L232.105 311.549V325.252Z"/><path fill="#263238" d="M244.79 308.303C247.43 308.303 248.642 309.903 248.642 312.514V321.064C248.642 323.652 247.43 325.252 244.79 325.252H240.855V308.303H244.79ZM244.79 323.532C246.144 323.532 246.802 322.687 246.802 321.138V312.417C246.802 310.868 246.144 310.023 244.768 310.023H242.733V323.532H244.79Z"/><path fill="#000" d="M114.138 266.625C114.138 268.869 100.353 270.656 83.3358 270.656C66.3188 270.656 52.5332 268.854 52.5332 266.625C52.5332 264.395 66.3263 262.593 83.3358 262.593C100.345 262.593 114.138 264.403 114.138 266.625Z" opacity=".3"/><path fill="#000" d="M178.623 266.625C178.623 268.869 164.83 270.656 147.82 270.656C130.811 270.656 117.018 268.854 117.018 266.625C117.018 264.395 130.811 262.593 147.82 262.593C164.83 262.593 178.623 264.403 178.623 266.625Z" opacity=".3"/><path fill="#000" d="M264.045 266.625C264.045 268.869 250.259 270.656 233.25 270.656C216.24 270.656 202.447 268.854 202.447 266.625C202.447 264.395 216.233 262.593 233.25 262.593C250.267 262.593 264.045 264.403 264.045 266.625Z" opacity=".3"/><path fill="#000" d="M335.403 266.625C335.403 268.869 321.61 270.656 304.6 270.656C287.591 270.656 273.768 268.854 273.768 266.625C273.768 264.395 287.561 262.593 304.57 262.593C321.58 262.593 335.403 264.403 335.403 266.625Z" opacity=".3"/><path fill="#fff" stroke="#263238" stroke-linecap="round" stroke-linejoin="round" stroke-width="1.047" d="M236.578 148.68C236.578 148.68 235.313 153.916 235.313 154.798C235.313 155.344 235.252 155.889 235.134 156.421C235.134 156.421 232.434 159.66 232.793 160.558C233.229 161.256 233.854 161.816 234.595 162.174C234.595 162.174 236.031 167.41 237.475 167.754C238.958 168.031 240.457 168.211 241.963 168.292L242.502 172.608L249.697 171.531L247.902 165.053L248.65 159.473C248.65 159.473 249.907 157.14 248.65 153.362C247.394 149.585 244.693 149.405 242.891 149.405C240.775 149.271 238.668 149.029 236.578 148.68Z"/><path fill="#263238" stroke="#263238" stroke-linecap="round" stroke-linejoin="round" stroke-width="1.047" d="M239.816 145.987C239.816 145.987 233.518 145.8 233.697 147.423C233.877 149.046 240.354 151.163 240.354 151.163C240.354 151.163 238.193 152.599 239.27 154.043C240.347 155.487 242.868 156.743 242.868 156.743C242.868 156.743 242.12 159.803 243.234 159.982C244.349 160.162 245.029 158.538 245.209 158C245.388 157.461 247.371 157.641 247.909 159.077C248.214 159.823 248.395 160.614 248.448 161.418C248.448 161.418 250.609 154.941 250.968 152.061C251.327 149.181 243.234 145.987 239.816 145.987Z"/><path fill="#fff" d="M243.803 160.072C243.803 160.072 245.979 155.285 247.281 157.641C248.582 159.998 248.029 162.451 246.75 162.713C245.471 162.975 244.401 163.229 244.401 163.229"/><path stroke="#263238" stroke-linecap="round" stroke-linejoin="round" stroke-width="1.047" d="M243.803 160.072C243.803 160.072 245.979 155.285 247.281 157.641C248.582 159.998 248.029 162.451 246.75 162.713C245.471 162.975 244.401 163.229 244.401 163.229"/><path fill="#263238" stroke="#263238" stroke-linecap="round" stroke-linejoin="round" stroke-width="1.047" d="M234.954 210.031C234.603 210.442 228.836 222.807 228.118 226.943C227.399 231.08 222.724 255.734 222.537 256.811C222.35 257.888 212.469 260.05 211.744 260.229C211.018 260.409 212.492 262.391 214.624 262.93C216.755 263.468 222.904 265.989 224.348 264.545C225.791 263.102 227.766 255.008 228.305 254.111C228.843 253.213 238.971 229.352 238.971 229.352C238.971 229.352 244.162 217.9 245.239 216.815C246.316 215.731 243.96 210.936 243.055 209.492C242.15 208.049 237.475 207.151 234.954 210.031Z"/><path fill="#263238" stroke="#263238" stroke-linecap="round" stroke-linejoin="round" stroke-width="1.047" d="M233.877 210.188C233.877 210.188 236.397 222.246 237.654 226.561C238.83 230.186 240.6 233.591 242.89 236.637C244.334 238.619 251.35 256.085 251.35 256.085L252.427 258.785C252.427 258.785 252.068 259.862 250.093 261.299C248.119 262.735 242.531 265.076 243.975 265.622C245.418 266.168 251.17 266.161 253.871 265.981C256.195 265.816 258.375 264.789 259.982 263.101C261.066 261.837 258.187 258.239 258.187 257.521C258.187 256.803 251.888 234.857 251.529 233.772C251.17 232.688 249.368 224.961 249.368 224.961V216.172C249.368 216.172 250.273 214.556 250.273 210.936C250.273 207.315 247.573 206.612 247.573 206.612L232.814 208.056L233.877 210.188Z"/><path fill="#FFCF55" stroke="#263238" stroke-linecap="round" stroke-linejoin="round" stroke-width="1.047" d="M232.629 209.133C232.629 209.133 232.995 212.192 234.073 212.372C235.15 212.551 246.302 215.611 251.164 212.013C251.164 212.013 252.062 209.312 251.523 208.594C250.985 207.876 249.721 208.235 243.251 208.235C236.78 208.235 232.629 208.235 232.629 209.133Z"/><path fill="#FFCF55" stroke="#263238" stroke-linecap="round" stroke-linejoin="round" stroke-width="1.047" d="M249.167 168.831C249.167 168.831 242.51 169.729 239.63 172.571C236.75 175.413 234.237 180.672 232.98 185.526C231.724 190.381 230.819 208.198 232.614 209.096C234.409 209.993 249.526 210.899 252.062 209.844C254.598 208.789 251.882 200.307 251.882 197.068C251.882 193.829 254.762 182.856 254.224 176.745C253.685 170.634 249.167 168.831 249.167 168.831Z"/><path fill="#263238" stroke="#263238" stroke-linecap="round" stroke-linejoin="round" stroke-width="1.047" d="M225.148 187.531C225.066 180.126 222.044 173.805 218.027 171.075V169.579L206.957 169.691C200.726 169.759 195.737 177.919 195.864 187.868C195.991 197.816 201.1 205.872 207.338 205.82L218.408 205.708V204.212C222.298 201.317 225.185 194.936 225.148 187.531Z"/><path fill="#fff" stroke="#263238" stroke-linecap="round" stroke-linejoin="round" stroke-width="1.047" d="M230.114 187.478C230.032 179.699 227.033 173.057 222.814 170.169V168.576L218.072 168.629C211.519 168.696 206.306 177.245 206.418 187.725C206.53 198.204 211.923 206.642 218.476 206.575L223.218 206.522V204.936C227.339 201.959 230.197 195.227 230.114 187.478Z"/><path fill="#737373" stroke="#263238" stroke-linecap="round" stroke-linejoin="round" stroke-width="1.047" d="M234.873 187.426C234.985 197.898 229.764 206.455 223.219 206.523C216.674 206.59 211.251 198.153 211.161 187.681C211.072 177.209 216.27 168.651 222.815 168.577C229.36 168.502 234.746 176.947 234.873 187.426Z"/><path fill="#263238" stroke="#263238" stroke-linecap="round" stroke-linejoin="round" stroke-width="1.047" d="M232.15 187.105C232.202 192.064 229.726 196.118 226.622 196.156C223.518 196.193 220.959 192.184 220.907 187.18C220.855 182.176 223.331 178.204 226.435 178.129C229.539 178.054 232.097 182.138 232.15 187.105Z"/><path fill="#263238" stroke="#263238" stroke-linecap="round" stroke-linejoin="round" stroke-width="1.047" d="M320.294 224.4C320.912 219.789 321.174 215.138 321.08 210.487C318.649 211.609 304.467 212.021 303.165 212.051C301.864 212.081 287.682 211.609 285.251 210.487C285.144 215.137 285.394 219.788 285.999 224.4C286.979 230.466 295.595 254.754 295.79 255.928C296.042 257.061 296.37 258.175 296.77 259.264C296.77 259.264 291.87 262.787 289.716 264.156C287.562 265.525 289.133 266.116 291.287 266.116C293.441 266.116 297.944 265.525 299.313 265.525C300.525 265.525 302.634 264.47 303.128 264.216C303.622 264.47 305.731 265.525 306.935 265.525C308.311 265.525 312.814 266.116 314.969 266.116C317.123 266.116 318.709 265.525 316.539 264.156C314.37 262.787 309.486 259.264 309.486 259.264C309.886 258.175 310.214 257.061 310.466 255.928C310.698 254.732 319.315 230.444 320.294 224.4Z"/><path fill="#FFCF55" stroke="#263238" stroke-linecap="round" stroke-linejoin="round" stroke-width="1.047" d="M300.202 172.406C300.202 172.406 292.625 174.882 288.713 177.365C284.801 179.849 280.874 193.298 280.874 193.821C280.649 194.759 280.343 195.675 279.961 196.559C279.961 196.559 276.042 195.647 275.264 198.908C274.486 202.169 279.176 206.35 281.659 206.485C284.142 206.62 284.92 205.834 284.92 205.834C284.92 205.834 283.357 208.968 284.008 210.27C284.659 211.572 290.149 216.411 300.987 216.254C311.826 216.097 319.687 214.294 320.832 212.731C321.976 211.168 322.141 207.899 322.141 207.899C322.141 207.899 326.188 206.852 327.624 204.241C329.06 201.631 328.798 198.885 328.013 196.148C327.227 193.41 323.181 185.459 320.443 181.016C317.705 176.573 311.953 174.097 309.223 173.311C306.493 172.526 302.027 172.406 300.202 172.406Z"/><path fill="#fff" stroke="#263238" stroke-linecap="round" stroke-linejoin="round" stroke-width="1.047" d="M302.499 183.402C303.584 183.043 306.987 180.021 308.296 176.999C308.814 175.842 309.179 174.622 309.381 173.371L309.209 173.319C306.471 172.533 302.028 172.406 300.233 172.406C300.233 172.406 298.647 172.922 296.553 173.723C296.566 175.34 296.87 176.941 297.45 178.45C298.632 181.472 301.445 183.768 302.499 183.402Z"/><path stroke="#263238" stroke-linecap="round" stroke-linejoin="round" stroke-width="1.047" d="M314.953 189.506C314.953 189.506 318.087 206.224 321.64 207.944"/><path stroke="#263238" stroke-linecap="round" stroke-linejoin="round" stroke-width="1.047" d="M284.922 205.835C284.922 205.835 288.841 191.077 289.103 189.641"/><path stroke="#263238" stroke-linecap="round" stroke-linejoin="round" stroke-width="1.047" d="M320.017 197.061C320.017 197.061 317.848 197.547 317.848 199.118"/><path stroke="#263238" stroke-linecap="round" stroke-linejoin="round" stroke-width="1.047" d="M283.164 197.3C283.164 197.3 285.58 198.871 285.341 201.287"/><path fill="#FFCF55" stroke="#263238" stroke-linecap="round" stroke-linejoin="round" stroke-width="1.047" d="M299.35 265.54C300.562 265.54 302.672 264.485 303.165 264.231C303.659 264.485 305.768 265.54 306.973 265.54C308.349 265.54 312.852 266.131 315.006 266.131C317.16 266.131 318.746 265.54 316.577 264.171C314.699 262.982 310.765 260.169 309.763 259.451C307.451 261.561 302.881 261.037 302.881 261.037C301.955 260.898 301.038 260.703 300.136 260.454C298.767 260.057 296.807 259.279 296.807 259.279C296.807 259.279 291.908 262.802 289.754 264.171C287.599 265.54 289.17 266.131 291.324 266.131C293.479 266.131 297.982 265.54 299.35 265.54Z"/><path stroke="#fff" stroke-linecap="round" stroke-linejoin="round" stroke-width="1.047" d="M302.881 259.309V225.155"/><path stroke="#263238" stroke-linecap="round" stroke-linejoin="round" stroke-width="1.047" d="M303.165 264.193L302.881 260.999V259.309"/><path stroke="#fff" stroke-linecap="round" stroke-linejoin="round" stroke-width="1.047" d="M300.135 223.981H305.812"/><path fill="#263238" stroke="#263238" stroke-linecap="round" stroke-linejoin="round" stroke-width="1.047" d="M292.716 152.809C292.716 152.809 288.647 155.247 289.253 157.386C289.859 159.526 291.699 159.937 291.295 161.126C290.891 162.316 289.477 163.064 291.086 163.812C292.001 164.222 292.96 164.53 293.943 164.732C293.943 164.732 295.439 169.923 298.012 170.835C300.585 171.748 305.043 171.142 308.2 170.738C309.266 170.634 310.275 170.207 311.093 169.515C311.911 168.823 312.498 167.898 312.778 166.864C313.084 165.749 311.454 167.073 310.638 165.846C309.823 164.62 311.05 161.47 311.962 158.718C312.875 155.965 310.13 150.774 306.569 149.046C303.009 147.318 296.209 148.223 292.716 152.809Z"/><path fill="#fff" stroke="#263238" stroke-linecap="round" stroke-linejoin="round" stroke-width="1.047" d="M299.552 170.544C299.035 172.251 298.684 174.005 298.505 175.78C298.37 178.024 300.203 180.485 302.163 180.35C304.123 180.216 305.813 176.304 306.075 174.366C306.337 172.429 305.424 167.186 305.424 167.186C305.424 167.186 302.432 167.32 301.243 168.36C300.544 168.973 299.97 169.714 299.552 170.544Z"/><path fill="#fff" stroke="#263238" stroke-linecap="round" stroke-linejoin="round" stroke-width="1.047" d="M296.896 155.658C296.896 155.658 296.993 158.71 300.053 161.642C301.892 163.421 304.072 164.807 306.463 165.719C306.41 166.387 306.237 167.041 305.954 167.649C305.821 167.903 305.614 168.11 305.36 168.244C305.106 168.378 304.818 168.431 304.533 168.397H303.508C303.508 168.397 302.012 171.905 300.202 172.413C298.392 172.922 293.941 172.57 293.328 168.09C292.715 163.609 292.617 159.944 293.126 159.024C293.635 158.104 296.896 155.658 296.896 155.658Z"/><path fill="#fff" stroke="#263238" stroke-linecap="round" stroke-linejoin="round" stroke-width="1.047" d="M328.903 195.078C329.367 194.142 329.649 193.127 329.734 192.086C329.734 190.725 327.205 188.772 326.742 188.286C326.278 187.8 325.814 187.852 325.717 188.533C325.715 188.915 325.792 189.293 325.943 189.645C326.094 189.996 326.314 190.313 326.592 190.575C326.971 190.874 327.246 191.285 327.377 191.749C327.422 192.086 326.54 193.739 326.981 194.809C327.422 195.878 328.664 196.2 328.903 195.078Z"/><path stroke="#263238" stroke-linecap="round" stroke-linejoin="round" stroke-width="3.142" d="M227.602 187.441C227.602 187.441 238.612 190.964 245.232 199.192C251.852 207.42 256.198 206.239 264.426 203.501C272.654 200.763 275.788 190.964 287.15 199.192C298.512 207.42 300.861 210.547 310.263 205.85C319.665 201.152 324.752 189.79 333.376 193.702C342.001 197.614 338.074 217.638 338.859 227.362C339.644 237.086 338.463 261.449 340.422 264.583C342.382 267.717 362.361 265.331 362.361 265.331"/><path fill="#FFCF55" d="M248.225 174.366C248.225 174.366 246.033 170.79 242.802 171.725C239.384 172.713 237.618 177.597 236.818 180.641C236.018 183.686 235.479 186.977 234.013 189.812C234.013 189.812 227.535 189.7 223.922 188.653C221.166 187.793 218.455 186.794 215.799 185.661C215.799 185.661 214.52 183.873 213.615 183.521C212.71 183.17 210.361 182.481 210.189 183.02C210.017 183.559 212.912 185.331 212.912 185.331C212.912 185.331 207.526 186.079 206.988 186.655C206.449 187.231 210.795 188.952 210.795 188.952C210.795 188.952 212.418 189.475 216.368 188.533C216.368 188.533 230.856 197.733 233.744 198.788C236.631 199.843 238.232 200.179 240.199 196.379C242.166 192.58 248.696 183.155 249.736 179.362"/><path stroke="#263238" stroke-linecap="round" stroke-linejoin="round" stroke-width="1.047" d="M248.225 174.366C248.225 174.366 246.033 170.79 242.802 171.725C239.384 172.713 237.618 177.597 236.818 180.641C236.018 183.686 235.479 186.977 234.013 189.812C234.013 189.812 227.535 189.7 223.922 188.653C221.166 187.793 218.455 186.794 215.799 185.661C215.799 185.661 214.52 183.873 213.615 183.521C212.71 183.17 210.361 182.481 210.189 183.02C210.017 183.559 212.912 185.331 212.912 185.331C212.912 185.331 207.526 186.079 206.988 186.655C206.449 187.231 210.795 188.952 210.795 188.952C210.795 188.952 212.418 189.475 216.368 188.533C216.368 188.533 230.856 197.733 233.744 198.788C236.631 199.843 238.232 200.179 240.199 196.379C242.166 192.58 248.696 183.155 249.736 179.362"/><path fill="#fff" stroke="#263238" stroke-linecap="round" stroke-linejoin="round" stroke-width="1.047" d="M219.561 187.187C217.444 186.394 215.821 185.691 215.821 185.691C215.821 185.691 214.541 183.903 213.636 183.552C212.731 183.2 210.383 182.512 210.211 183.05C210.039 183.589 212.933 185.362 212.933 185.362C212.933 185.362 207.548 186.11 207.009 186.686C206.471 187.262 210.816 188.982 210.816 188.982C210.816 188.982 212.44 189.506 216.389 188.563L218.416 189.842L219.561 187.187Z"/><path fill="#fff" stroke="#263238" stroke-linecap="round" stroke-linejoin="round" stroke-width="1.047" d="M275.406 196.454C274.942 195.519 274.661 194.503 274.576 193.462C274.576 192.101 277.112 190.156 277.568 189.67C278.024 189.184 278.488 189.236 278.585 189.917C278.587 190.299 278.51 190.677 278.359 191.028C278.209 191.38 277.988 191.696 277.71 191.959C277.331 192.258 277.056 192.669 276.925 193.133C276.88 193.462 277.763 195.123 277.321 196.193C276.88 197.262 275.646 197.569 275.406 196.454Z"/><path fill="#fff" stroke="#263238" stroke-linecap="round" stroke-linejoin="round" stroke-width="1.047" d="M277.15 192.348C277.15 192.348 275.063 196.2 276.275 197.584C277.487 198.968 278.661 194.472 278.885 193.231C279.11 191.989 277.92 190.74 277.15 192.348Z"/><path fill="#fff" stroke="#263238" stroke-linecap="round" stroke-linejoin="round" stroke-width="1.047" d="M278.871 193.732C278.871 193.732 276.784 197.584 277.995 198.968C279.207 200.352 280.382 195.856 280.606 194.615C280.83 193.373 279.641 192.079 278.871 193.732Z"/><path fill="#fff" stroke="#263238" stroke-linecap="round" stroke-linejoin="round" stroke-width="1.047" d="M280.761 194.053C280.761 194.053 278.674 197.906 279.886 199.289C281.098 200.673 282.272 196.178 282.497 194.936C282.721 193.694 281.532 192.438 280.761 194.053Z"/><path fill="#fff" stroke="#263238" stroke-linecap="round" stroke-linejoin="round" stroke-width="1.047" d="M283.186 194.083C283.186 194.083 281.241 197.075 282.304 198.205C283.366 199.334 284.51 195.781 284.735 194.756C284.959 193.732 283.904 192.737 283.186 194.083Z"/><path fill="#fff" stroke="#263238" stroke-linecap="round" stroke-linejoin="round" stroke-width="1.047" d="M327.513 192.498C327.513 192.498 329.6 196.35 328.388 197.734C327.176 199.118 326.002 194.615 325.778 193.373C325.553 192.131 326.743 190.882 327.513 192.498Z"/><path fill="#fff" stroke="#263238" stroke-linecap="round" stroke-linejoin="round" stroke-width="1.047" d="M325.792 193.844C325.792 193.844 327.879 197.696 326.668 199.08C325.456 200.464 324.281 195.961 324.057 194.719C323.833 193.478 325.022 192.236 325.792 193.844Z"/><path fill="#fff" stroke="#263238" stroke-linecap="round" stroke-linejoin="round" stroke-width="1.047" d="M323.885 194.203C323.885 194.203 325.972 198.055 324.76 199.439C323.548 200.822 322.374 196.327 322.157 195.078C321.94 193.829 323.137 192.587 323.885 194.203Z"/><path fill="#fff" stroke="#263238" stroke-linecap="round" stroke-linejoin="round" stroke-width="1.047" d="M321.476 194.234C321.476 194.234 323.421 197.263 322.359 198.355C321.297 199.447 320.152 195.931 319.935 194.907C319.719 193.882 320.758 192.887 321.476 194.234Z"/><path fill="#fff" stroke="#263238" stroke-linecap="round" stroke-linejoin="round" stroke-width="1.047" d="M64.1196 236.854V241.103C62.6452 242.714 61.585 244.66 61.0304 246.772C60.1253 250.243 57.2904 265.181 58.0384 265.57C58.7864 265.959 65.825 267.567 68.069 267.23C70.6422 266.841 72.8338 266.976 71.5398 265.555C70.2457 264.133 63.4464 260.162 63.4464 260.162C63.4464 260.162 70.9264 249.345 72.587 245.351C74.2475 241.357 74.5168 235.178 74.5168 235.178L64.4786 234.797L64.1196 236.854Z"/><path fill="#263238" stroke="#263238" stroke-linecap="round" stroke-linejoin="round" stroke-width="1.047" d="M68.0692 267.231C70.6423 266.842 72.8339 266.976 71.5399 265.555C70.2459 264.134 63.4465 260.162 63.4465 260.162L63.1922 261.703L58.2928 261.105C57.9338 263.603 57.7767 265.436 58.0385 265.593C58.8389 265.952 65.8252 267.567 68.0692 267.231Z"/><path fill="#fff" stroke="#263238" stroke-linecap="round" stroke-linejoin="round" stroke-width="1.047" d="M88.7135 239.053L89.8729 241.118C89.3923 242.045 89.1096 243.061 89.0426 244.103C88.9756 245.144 89.1259 246.189 89.4839 247.169C90.6433 250.775 93.3511 264.037 93.3511 264.807C93.3511 265.577 95.0191 266.094 96.3431 266.094C97.6671 266.094 101.332 266.348 101.848 266.348C102.365 266.348 106.097 266.991 107.384 266.221C108.67 265.45 105.745 263.902 103.816 263.004C101.886 262.107 97.6371 259.788 97.6371 259.788C97.6371 259.788 98.6619 249.226 98.6619 244.589C98.6619 239.951 99.6941 238.41 98.2804 235.575C96.8667 232.74 87.9805 236.869 87.9805 236.869L88.7135 239.053Z"/><path fill="#263238" stroke="#263238" stroke-linecap="round" stroke-linejoin="round" stroke-width="1.047" d="M103.778 263.004C101.848 262.099 97.5998 259.788 97.5998 259.788L97.0837 261.718L92.9473 262.466C93.1941 263.752 93.3512 264.635 93.3512 264.815C93.3512 265.563 95.0192 266.101 96.3432 266.101C97.6671 266.101 101.332 266.356 101.848 266.356C102.365 266.356 106.097 266.999 107.384 266.228C108.67 265.458 105.708 263.902 103.778 263.004Z"/><path fill="#fff" stroke="#263238" stroke-linecap="round" stroke-linejoin="round" stroke-width="1.047" d="M81.7784 153.34C80.769 151.615 79.6154 149.978 78.3301 148.448C76.5573 146.45 70.9997 146.563 68.5612 149.196C66.1227 151.829 66.8932 156.526 67.8132 157.857C68.7332 159.189 70.5883 165.412 70.5883 165.412L71.0296 169.855L81.3595 173.521L79.2501 166.302C79.2501 166.302 83.2519 165.554 83.581 164.305C83.9101 163.056 82.9153 158.86 82.9153 158.86C82.9153 158.86 84.2468 157.97 84.1346 157.192C84.0224 156.414 81.7784 153.34 81.7784 153.34Z"/><path fill="#263238" stroke="#263238" stroke-linecap="round" stroke-linejoin="round" stroke-width="1.047" d="M69.8932 158.127C69.8932 158.127 71.6585 159.623 72.6234 157.91C73.5883 156.197 74.3214 154.521 74.3214 153.07C74.3214 151.619 70.6936 150.415 73.1096 149.442C75.5256 148.47 77.2685 150.632 78.3456 148.463C79.4227 146.293 78.4428 146.062 72.6384 146.062C66.8339 146.062 63.9316 148.964 65.1584 152.592C66.1395 155.271 67.3534 157.859 68.7862 160.326L69.8932 158.127Z"/><path stroke="#263238" stroke-linecap="round" stroke-linejoin="round" stroke-width="1.047" d="M82.1088 155.906C82.1088 156.455 81.946 156.991 81.6411 157.448C81.3361 157.904 80.9027 158.26 80.3957 158.47C79.8886 158.68 79.3306 158.735 78.7923 158.628C78.254 158.521 77.7595 158.256 77.3714 157.868C76.9833 157.48 76.719 156.986 76.6119 156.447C76.5048 155.909 76.5598 155.351 76.7698 154.844C76.9799 154.337 77.3356 153.903 77.7919 153.599C78.2483 153.294 78.7848 153.131 79.3337 153.131C80.0697 153.131 80.7755 153.423 81.296 153.944C81.8164 154.464 82.1088 155.17 82.1088 155.906V155.906Z"/><path stroke="#263238" stroke-linecap="round" stroke-linejoin="round" stroke-width="1.047" d="M81.7051 153.444C82.028 153.312 82.3734 153.243 82.7224 153.242C83.3002 153.243 83.8614 153.436 84.3179 153.79C84.7744 154.144 85.1005 154.64 85.2451 155.2C85.3897 155.759 85.3445 156.351 85.1168 156.882C84.889 157.413 84.4915 157.853 83.9865 158.134"/><path stroke="#263238" stroke-linecap="round" stroke-linejoin="round" stroke-width="1.047" d="M76.5573 155.905L69.8926 158.127"/><path fill="#fff" d="M71.8085 159.57C71.8085 159.57 70.4771 156.795 69.1457 157.326C67.8142 157.857 68.4799 162.218 69.8114 162.66C70.2588 162.76 70.7239 162.752 71.1676 162.637C71.6114 162.521 72.0209 162.3 72.3621 161.994C72.3621 161.994 73.4766 164.328 74.808 164.986"/><path stroke="#263238" stroke-linecap="round" stroke-linejoin="round" stroke-width="1.047" d="M71.8085 159.57C71.8085 159.57 70.4771 156.795 69.1457 157.326C67.8142 157.857 68.4799 162.218 69.8114 162.66C70.2588 162.76 70.7239 162.752 71.1676 162.637C71.6114 162.521 72.0209 162.3 72.3621 161.994C72.3621 161.994 73.4766 164.328 74.808 164.986"/><path fill="#FFCF55" stroke="#263238" stroke-linecap="round" stroke-linejoin="round" stroke-width="1.047" d="M63.0715 209.44L62.2412 220.076L59.7578 235.822C59.7578 235.822 65.5623 240.377 70.9778 240.377C76.3933 240.377 77.8819 239.689 77.8819 239.689L80.9187 223.532L83.9556 240.519C83.9556 240.519 89.9396 239.554 93.904 238.582C96.6606 237.815 99.2732 236.602 101.638 234.991L93.6273 214.137L91.8919 203.381C91.8919 203.381 82.9159 204.211 77.5228 204.488C72.1297 204.765 64.9564 203.381 64.9564 203.381L63.0715 209.44Z"/><path fill="#263238" stroke="#263238" stroke-linecap="round" stroke-linejoin="round" stroke-width="1.047" d="M68.7645 166.938C68.7645 166.938 81.4805 171.374 85.4075 175.682C87.5767 178.076 90.0077 194.457 90.8829 198.459C91.7581 202.461 93.284 210.427 93.284 210.427C93.284 210.427 85.5272 213.927 79.5283 214.055C73.5293 214.182 62.0176 211.429 62.0176 211.429C62.0176 211.429 63.3864 193.679 63.3864 185.429C63.3864 177.178 63.5136 171.793 64.8824 169.167C64.8899 169.19 67.1414 166.684 68.7645 166.938Z"/><path stroke="#263238" stroke-linecap="round" stroke-linejoin="round" stroke-width="1.047" d="M65.4209 212.716C65.4209 212.716 66.109 224.317 65.4209 228.603C64.9376 231.369 64.1031 234.061 62.9375 236.614"/><path stroke="#263238" stroke-linecap="round" stroke-linejoin="round" stroke-width="1.047" d="M65.6973 218.244C66.7359 217.888 67.6639 217.267 68.3904 216.444C69.1168 215.62 69.6168 214.622 69.8412 213.547"/><path stroke="#263238" stroke-linecap="round" stroke-linejoin="round" stroke-width="1.047" d="M60.4453 233.578C60.4453 233.578 67.3568 239.517 78.128 237.318"/><path stroke="#263238" stroke-linecap="round" stroke-linejoin="round" stroke-width="1.047" d="M83.6562 237.026C83.6562 237.026 94.981 235.784 99.9552 232.471"/><path fill="#263238" stroke="#263238" stroke-linecap="round" stroke-linejoin="round" stroke-width="1.047" d="M134.312 161.568C134.312 161.568 133.22 162.376 129.412 165.158C125.605 167.941 128.605 172.144 128.605 172.144C128.605 172.144 125.882 172.571 122.247 176.393C118.611 180.215 123.87 186.775 128.784 187.8C133.698 188.825 139.443 182.744 141.163 177.104C142.884 171.464 140.61 162.959 139.465 161.201C138.321 159.443 134.312 161.568 134.312 161.568Z"/><path fill="#263238" stroke="#263238" stroke-linecap="round" stroke-linejoin="round" stroke-width="1.047" d="M148.733 160.82C148.733 160.82 150.626 157.896 148.913 153.654C147.2 149.413 142.084 147.476 137.102 150.55C135.442 151.538 134.154 153.047 133.438 154.841C132.723 156.636 132.62 158.617 133.145 160.476C133.631 162.436 136.085 165.45 136.601 165.495C137.117 165.54 141.597 167.171 144.657 165.742C147.716 164.313 148.733 160.82 148.733 160.82Z"/><path fill="#737373" stroke="#263238" stroke-linecap="round" stroke-linejoin="round" stroke-width="1.047" d="M126.719 259.556C126.719 259.556 130.272 265.084 136.443 266.026C142.614 266.969 137.064 261.433 136.024 260.596C134.984 259.758 127.557 257.948 126.719 259.556Z"/><path fill="#737373" stroke="#263238" stroke-linecap="round" stroke-linejoin="round" stroke-width="1.047" d="M159.594 260.977C159.594 260.977 166.378 262.645 165.854 264.111C165.331 265.577 159.803 265.465 156.572 264.627C153.34 263.79 150.304 262.541 150.722 261.187C151.141 259.833 159.594 260.977 159.594 260.977Z"/><path fill="#FFCF55" stroke="#263238" stroke-linecap="round" stroke-linejoin="round" stroke-width="1.047" d="M140.303 171.815C140.303 171.815 131.222 173.147 129.561 176.356C127.901 179.565 130.242 197.045 130.242 197.045C130.242 197.045 126.367 205.595 126.315 211.1C126.263 216.606 128.716 226.292 128.522 228.708C128.327 231.124 125.844 258.628 125.844 259.376C125.844 260.124 131.08 261.8 138.627 262.697C146.174 263.595 160.611 260.91 160.611 260.91C160.611 260.91 160.327 244.678 161.082 234.999C161.838 225.32 160.76 216.621 158.838 213.008C156.916 209.395 147.962 196.387 147.962 196.387C147.962 196.387 152.301 188.518 152.57 185.077C152.839 181.637 151.44 179.841 148.164 175.885C147.19 174.717 145.993 173.756 144.644 173.057C143.294 172.359 141.818 171.936 140.303 171.815Z"/><path fill="#737373" stroke="#263238" stroke-linecap="round" stroke-linejoin="round" stroke-width="1.047" d="M147.984 196.394C147.984 196.394 152.322 188.525 152.592 185.085C152.861 181.644 151.462 179.849 148.186 175.892C148.029 175.697 147.864 175.525 147.7 175.346L147.58 175.458C144.214 180.956 133.084 190.351 129.77 193.088C130.025 195.43 130.241 197.045 130.241 197.045C130.241 197.045 126.367 205.595 126.314 211.1C126.376 213.609 126.627 216.109 127.062 218.58C134.924 214.092 145.441 205.692 151.133 201.01C149.353 198.377 147.984 196.394 147.984 196.394Z"/><path fill="#fff" stroke="#263238" stroke-linecap="round" stroke-linejoin="round" stroke-width="1.047" d="M138.627 165.398C138.878 167.451 139.015 169.516 139.038 171.584C138.919 173.117 139.412 176.618 142.03 177.717C144.648 178.817 146.294 177.284 146.286 175.743C146.191 174.47 145.94 173.214 145.538 172.003L145.613 167.777C145.613 167.777 141.095 164.949 138.627 165.398Z"/><path fill="#fff" stroke="#263238" stroke-linecap="round" stroke-linejoin="round" stroke-width="1.047" d="M136.278 162.652C136.278 162.652 134.356 160.962 134.296 163.4C134.236 165.839 136.48 166.647 136.974 166.811C137.391 166.868 137.813 166.764 138.156 166.52C138.156 166.52 141.641 169.512 144.439 169.706C147.237 169.901 148.373 168.606 149.032 163.528C149.69 158.449 144.446 153.295 144.446 153.295C144.446 153.295 139.958 161.568 136.278 162.652Z"/><path fill="#fff" stroke="#263238" stroke-linecap="round" stroke-linejoin="round" stroke-width="1.047" d="M93.5005 210.322C93.475 209.456 93.6172 208.592 93.9194 207.779C94.3831 206.762 96.9114 206.178 97.4724 205.984C98.0334 205.789 98.3176 205.984 98.153 206.515C98.0222 206.801 97.8347 207.056 97.602 207.267C97.3693 207.478 97.0961 207.64 96.7992 207.742C96.4123 207.835 96.0643 208.046 95.8043 208.348C95.6622 208.587 95.752 210.12 95.0563 210.771C94.3607 211.422 93.2686 211.242 93.5005 210.322Z"/><path stroke="#263238" stroke-linecap="round" stroke-linejoin="round" stroke-width="3.142" d="M150.827 187.83C150.827 187.83 141.851 186.656 137.894 192.924C133.937 199.193 126.54 221.124 112.829 224.654C99.1179 228.185 95.1984 199.97 86.9704 200.756C79.1313 201.504 73.656 200.756 68.951 209.373C66.4378 213.988 53.8714 264.381 47.9322 264.897C29.0153 266.55 16.8379 265.473 16.8379 265.473"/><path fill="#263238" d="M69.3474 167.297C69.3474 167.297 67.2755 166.467 64.5079 168.12C61.7403 169.773 54.2902 187.875 54.8437 189.812C55.3972 191.749 63.2662 195.34 67.6869 196.582C72.1075 197.823 80.1186 199.349 80.1186 199.349C80.1186 199.349 82.602 203.216 83.4323 203.351C84.6398 203.335 85.8427 203.197 87.0227 202.94C87.0227 202.94 88.5187 204.181 89.0946 202.797C89.6706 201.414 88.5411 199.626 87.2994 198.242C86.0578 196.858 80.8068 196.17 80.8068 196.17L66.5724 186.356L72.5564 175.308"/><path stroke="#263238" stroke-linecap="round" stroke-linejoin="round" stroke-width="1.047" d="M69.3474 167.297C69.3474 167.297 67.2755 166.467 64.5079 168.12C61.7403 169.773 54.2902 187.875 54.8437 189.812C55.3972 191.749 63.2662 195.34 67.6869 196.582C72.1075 197.823 80.1186 199.349 80.1186 199.349C80.1186 199.349 82.602 203.216 83.4323 203.351C84.6398 203.335 85.8427 203.197 87.0227 202.94C87.0227 202.94 88.5187 204.181 89.0946 202.797C89.6706 201.414 88.5411 199.626 87.2994 198.242C86.0577 196.858 80.8068 196.17 80.8068 196.17L66.5724 186.356L72.5564 175.308"/><path fill="#fff" stroke="#263238" stroke-linecap="round" stroke-linejoin="round" stroke-width="1.047" d="M83.4317 203.343C84.6392 203.327 85.8421 203.189 87.0221 202.932C87.0221 202.932 88.5181 204.174 89.094 202.79C89.67 201.406 88.5405 199.618 87.2988 198.235C86.0571 196.851 80.8062 196.163 80.8062 196.163L66.5717 186.356L68.6961 182.399C63.3778 179.086 59.8472 179.333 57.9398 179.998C56.0324 184.576 54.5813 188.914 54.8356 189.805C55.3891 191.742 63.2581 195.332 67.6788 196.574C72.0995 197.816 80.1105 199.342 80.1105 199.342C80.1105 199.342 82.6014 203.209 83.4317 203.343Z"/><path fill="#263238" stroke="#263238" stroke-linecap="round" stroke-linejoin="round" stroke-width="1.047" d="M172.407 188.137C171.801 181.607 168.667 176.244 164.927 174.112L164.807 172.78L155.038 173.685C149.54 174.194 145.748 181.741 146.563 190.538C147.379 199.334 152.495 206.044 157.993 205.498L167.762 204.593L167.635 203.261C170.926 200.509 173.013 194.667 172.407 188.137Z"/><path fill="#fff" stroke="#263238" stroke-linecap="round" stroke-linejoin="round" stroke-width="1.047" d="M176.827 187.748C176.192 180.889 173.087 175.241 169.131 172.997L168.996 171.599L164.815 171.988C159.04 172.526 155.053 180.447 155.906 189.693C156.759 198.938 162.144 205.992 167.919 205.453L172.1 205.064L171.973 203.665C175.429 200.718 177.463 194.585 176.827 187.748Z"/><path fill="#fff" stroke="#263238" stroke-linecap="round" stroke-linejoin="round" stroke-width="1.047" d="M181.017 187.336C181.877 196.582 177.891 204.503 172.109 205.042C166.327 205.58 160.948 198.519 160.073 189.281C159.198 180.043 163.2 172.077 168.974 171.576C174.749 171.075 180.15 178.099 181.017 187.336Z"/><path fill="#737373" stroke="#263238" stroke-linecap="round" stroke-linejoin="round" stroke-width="1.047" d="M185.505 181.936L169.281 183.432C169.054 183.453 168.824 183.43 168.606 183.363C168.387 183.295 168.184 183.186 168.009 183.04C167.833 182.894 167.687 182.714 167.581 182.512C167.475 182.31 167.409 182.089 167.389 181.861C167.367 181.634 167.391 181.404 167.458 181.186C167.525 180.967 167.635 180.764 167.781 180.589C167.927 180.413 168.106 180.267 168.308 180.161C168.511 180.055 168.732 179.989 168.959 179.969L185.184 178.473C185.411 178.451 185.641 178.475 185.859 178.542C186.077 178.609 186.28 178.719 186.456 178.865C186.632 179.011 186.777 179.19 186.884 179.392C186.99 179.595 187.055 179.816 187.076 180.043C187.098 180.271 187.074 180.5 187.007 180.719C186.939 180.937 186.83 181.14 186.684 181.316C186.538 181.492 186.359 181.637 186.156 181.743C185.954 181.85 185.733 181.915 185.505 181.936Z"/><path fill="#737373" stroke="#263238" stroke-linecap="round" stroke-linejoin="round" stroke-width="1.047" d="M186.708 194.794L170.484 196.29C170.257 196.312 170.027 196.288 169.809 196.221C169.59 196.153 169.388 196.044 169.212 195.898C169.036 195.752 168.891 195.572 168.784 195.37C168.678 195.168 168.612 194.947 168.592 194.719C168.57 194.492 168.594 194.262 168.661 194.044C168.728 193.825 168.838 193.622 168.984 193.447C169.13 193.271 169.309 193.126 169.511 193.019C169.714 192.913 169.935 192.847 170.163 192.827L186.387 191.331C186.845 191.291 187.301 191.434 187.655 191.728C188.01 192.022 188.234 192.443 188.279 192.902C188.301 193.129 188.277 193.359 188.21 193.577C188.143 193.795 188.033 193.998 187.887 194.174C187.741 194.35 187.562 194.495 187.359 194.602C187.157 194.708 186.936 194.773 186.708 194.794Z"/><path fill="#FFCF55" d="M134.693 173.035C134.693 173.035 130.788 173.783 128.941 176.027C127.093 178.271 123.301 195.587 124.176 197.577C125.051 199.567 139.076 202.065 143.407 202.424C146.89 202.562 150.378 202.407 153.834 201.96C153.834 201.96 157.574 201.863 158.599 201.691C159.624 201.519 161.509 200.509 161.539 200.128C161.569 199.746 161.382 198.834 159.983 198.721C158.584 198.609 155.585 197.607 155.203 197.577C156.102 197.341 157.013 197.156 157.933 197.024C157.933 197.024 158.128 196.276 156.587 196.276C155.046 196.276 153.647 196.171 153.064 197.024C152.647 197.688 152.291 198.389 152.002 199.118C152.002 199.118 143.362 199.724 138.672 197.435C133.982 195.146 132.501 194.383 132.501 194.383L135.867 180.919"/><path stroke="#263238" stroke-linecap="round" stroke-linejoin="round" stroke-width="1.047" d="M134.693 173.035C134.693 173.035 130.788 173.783 128.941 176.027C127.093 178.271 123.301 195.587 124.176 197.577C125.051 199.567 139.076 202.065 143.407 202.424C146.89 202.562 150.378 202.407 153.834 201.96C153.834 201.96 157.574 201.863 158.599 201.691C159.624 201.519 161.509 200.509 161.539 200.128C161.569 199.746 161.382 198.834 159.983 198.721C158.584 198.609 155.585 197.607 155.203 197.577C156.102 197.341 157.013 197.156 157.933 197.024C157.933 197.024 158.128 196.276 156.587 196.276C155.046 196.276 153.647 196.171 153.064 197.024C152.647 197.688 152.291 198.389 152.002 199.118C152.002 199.118 143.362 199.724 138.672 197.435C133.982 195.146 132.501 194.383 132.501 194.383L135.867 180.919"/><path fill="#fff" stroke="#263238" stroke-linecap="round" stroke-linejoin="round" stroke-width="1.047" d="M158.576 201.713C159.615 201.541 161.485 200.532 161.515 200.15C161.545 199.769 161.358 198.856 159.96 198.744C158.561 198.632 155.561 197.629 155.18 197.599C156.079 197.363 156.99 197.178 157.91 197.046C157.91 197.046 158.105 196.298 156.564 196.298C155.023 196.298 153.624 196.193 153.041 197.046C152.623 197.71 152.268 198.411 151.978 199.14C151.978 199.14 143.339 199.746 138.649 197.457C133.959 195.168 132.478 194.405 132.478 194.405L134.528 186.177C131.86 185.079 129.044 184.381 126.172 184.105C124.774 189.745 123.629 196.388 124.153 197.569C125.02 199.559 139.053 202.057 143.384 202.416C146.866 202.554 150.354 202.399 153.811 201.953C153.811 201.953 157.558 201.885 158.576 201.713Z"/><path fill="#fff" stroke="#263238" stroke-linecap="round" stroke-linejoin="round" stroke-width="1.047" d="M95.4001 208.871C95.4001 208.871 92.5128 211.033 92.9541 212.462C93.3954 213.89 95.804 210.966 96.4024 210.106C97.0008 209.245 96.5295 207.944 95.4001 208.871Z"/><path fill="#fff" stroke="#263238" stroke-linecap="round" stroke-linejoin="round" stroke-width="1.047" d="M95.969 210.808C95.969 210.808 93.0892 212.97 93.523 214.399C93.9569 215.827 96.3804 212.903 96.9713 212.043C97.5622 211.182 97.0985 209.866 95.969 210.808Z"/><path fill="#fff" stroke="#263238" stroke-linecap="round" stroke-linejoin="round" stroke-width="1.047" d="M97.338 212.065C97.338 212.065 94.4582 214.227 94.8995 215.656C95.3408 217.084 97.7494 214.16 98.3478 213.299C98.9462 212.439 98.475 211.123 97.338 212.065Z"/><path fill="#fff" stroke="#263238" stroke-linecap="round" stroke-linejoin="round" stroke-width="1.047" d="M98.4671 213.083C98.4671 213.083 95.9763 214.683 96.3951 215.865C96.814 217.047 98.871 214.811 99.3871 214.123C99.9033 213.434 99.4844 212.327 98.4671 213.083Z"/></svg>